<?xml version="1.0" encoding="UTF-8"?>
<svg xmlns="http://www.w3.org/2000/svg" viewBox="0 0 1236 1236">
  <defs>
    <style>
      .cls-1 {
        fill: #343434;
      }

      .cls-2, .cls-3 {
        mix-blend-mode: multiply;
      }

      .cls-2, .cls-4 {
        fill: #dbd7d5;
      }

      .cls-5, .cls-6, .cls-7, .cls-8 {
        mix-blend-mode: color-dodge;
      }

      .cls-5, .cls-6, .cls-3 {
        fill: #eee8e8;
      }

      .cls-9, .cls-8 {
        fill: #5b5b57;
      }

      .cls-6 {
        opacity: .6;
      }

      .cls-10 {
        isolation: isolate;
      }

      .cls-11 {
        fill: #232323;
      }

      .cls-12 {
        fill: #111;
      }

      .cls-13 {
        fill: #f5ce31;
      }

      .cls-14 {
        fill: #494949;
      }

      .cls-15 {
        fill: #515151;
      }

      .cls-16 {
        fill: #757575;
      }

      .cls-17 {
        fill: #f4edea;
      }

      .cls-18 {
        fill: #070707;
      }
    </style>
  </defs>
  <g class="cls-10">
    <g id="_Layer_" data-name="&amp;lt;Layer&amp;gt;">
      <g>
        <path class="cls-12" d="m567.14,530.26c-13.1-59.26-23.6-118.29-41.52-175.35-29.86-95.11-90.27-211.4-198.62-239.71C191.32,79.76,19.68,189.12,48.03,383.59l84.26,30.14c-16.23-35.62-11.04-103.25-2.23-126.78,24.39-65.22,95.32-119.66,166.28-125.74,109.86-9.41,175.97,157.45,207.74,234.83,38.63,94.09,59.64,200.33,76.12,304.1,29.29-29.82-3.85-128.26-13.05-169.87Z"/>
        <path class="cls-12" d="m357.45,634.96c-37.74-13.69-191.93-100.67-232.03-241.96-1.48,19.32-79.44-67.27-81.41-47.99-7.44,241.61,309.44,470.2,367.98,534.61l-8.72-229.57c-14.41-2.96-31.11-9.75-45.82-15.08Z"/>
        <path class="cls-12" d="m219.02,438.47c-41.83,8.36-64.36,13.67-101.97-8.29-9.22,37.45,15.64,52.18,43.67,59.14,46.71,11.6,156,22.24,191.43,53.94l10.84-90.88c-48.68-3.74-92.69-24.15-143.96-13.91Z"/>
        <g>
          <g>
            <path class="cls-13" d="m957.3,723.18c-17.9,118.62,24.48,223.35,94.66,233.94,9.74,1.47,19.51,1.05,29.16-1.09,40.93-9.05,79.64-48.95,104.94-105.96,3.23-7.27,6.24-14.81,9-22.61,7.26-20.43,12.85-42.58,16.38-65.93,4.87-32.26,5.28-63.49,1.87-92.08-7.43-62.55-33.07-112.46-70.09-132.81-8.27-4.56-17.12-7.63-26.45-9.04-46.93-7.08-94.39,29.73-126.04,90.35-15.69,30.04-27.5,65.93-33.43,105.24Z"/>
            <path class="cls-11" d="m943.76,722.81c-17.9,118.61,24.48,223.35,94.66,233.94,9.74,1.47,19.51,1.05,29.16-1.09,40.93-9.05,79.64-48.95,104.94-105.96,3.23-7.27,6.24-14.81,9-22.61,7.25-20.43,12.85-42.58,16.38-65.93,4.87-32.25,5.28-63.49,1.87-92.08-7.43-62.55-33.07-112.46-70.08-132.81-8.27-4.56-17.12-7.63-26.45-9.04-46.92-7.08-94.39,29.72-126.04,90.35-15.69,30.04-27.5,65.93-33.43,105.24Z"/>
            <path class="cls-12" d="m909.94,720.18c-17.9,118.61,24.48,223.35,94.66,233.94,9.74,1.47,19.51,1.05,29.16-1.09,40.93-9.05,79.64-48.95,104.94-105.96,3.23-7.27,6.24-14.81,9-22.61,7.26-20.43,12.85-42.58,16.38-65.93,4.87-32.26,5.28-63.49,1.87-92.08-7.43-62.55-33.07-112.46-70.09-132.81-8.27-4.56-17.12-7.63-26.45-9.04-46.93-7.08-94.39,29.73-126.04,90.35-15.69,30.05-27.5,65.93-33.43,105.24Z"/>
            <path class="cls-18" d="m862.66,713.79c-17.9,118.61,24.48,223.35,94.66,233.94,9.74,1.47,19.51,1.05,29.16-1.09,40.93-9.05,79.64-48.95,104.94-105.96,3.24-7.27,6.24-14.81,9-22.61,7.26-20.44,12.85-42.58,16.38-65.93,4.87-32.26,5.28-63.49,1.87-92.08-7.43-62.55-33.07-112.46-70.09-132.82-8.27-4.56-17.12-7.63-26.45-9.04-46.92-7.08-94.39,29.73-126.05,90.35-15.69,30.04-27.5,65.93-33.43,105.24Z"/>
          </g>
          <g>
            <g>
              <path class="cls-17" d="m1004.94,953.29c3.44,6.86-28.31,29.73-70.92,51.08-42.6,21.36-79.93,33.12-83.37,26.26-3.44-6.85,28.32-29.73,70.92-51.08,42.61-21.36,79.93-33.12,83.37-26.26Z"/>
              <path class="cls-4" d="m1005.15,953.7l-154.05,77.22-40.01-43.63c-.26-.21-.5-.43-.63-.71-2.92-5.84,24.06-25.48,63.06-46.71,6.85-3.73,14.09-7.5,21.58-11.26,49.96-25.05,93.25-39.86,97.02-33.23h.02s0,.03,0,.03c.01.02.03.03.04.05.15.29.19.63.18.98l10.71,48.08,2.05,9.17Z"/>
              <path class="cls-2" d="m1005.15,953.7l-154.05,77.22-40.01-43.63c-.26-.21-.5-.43-.63-.71-2.92-5.84,24.06-25.48,63.06-46.71-1.03,14.94,1.84,29.24,7.72,44.34,17.57-9.48,72.75-27.82,121.86-39.69l2.05,9.17Z"/>
            </g>
            <g>
              <path class="cls-5" d="m996.73,497.14c8.7,82.37,12.17,148.85,12.61,164.61-3.01,1.69-5.77,2.87-8.32,3.55-12.05,3.25-19.2-4.3-24.31-17.45-15.17-39.05-12.36-127.46-66.49-128.85-2.23-.06-4.42-.07-6.61-.06-69.28.61-114.35,39.42-131.93,96.4-11.78,38.14-30.63,74.55-56.57,96.08-22.31,18.53-49.88,26.03-82.69,14.13-21.16-7.67-45.34-21.77-70.06-40.45-125.06-94.47-263.94-306.02-96.06-394.66,0,0,29.33-11.35,81.92-23.17,16.77-3.77,35.9-7.59,57.19-11.11,23.14-3.83,48.83-7.29,76.84-9.94,44.87-4.24,95.64-6.41,151.28-4.63,65.11,2.08,96.97-70.96,116.55-13.32.79,2.35,1.57,4.93,2.33,7.73,21.55,79.5,35.58,178.35,44.32,261.15Z"/>
              <path class="cls-11" d="m739.41,234.73c-31.29,37.1-26.55,346.11-11.16,379.02,28.17,60.2,144.7,11.14,183.31-29.33-44.47-40.85-79.33-101.04-92.7-161.5-7.66-34.63-6.74-75.3,1.21-110.32,4.36-19.22,11.01-37.41,22.36-53.45,7.93-11.21,29.96-25.32,30.12-35.68l-133.14,11.26Z"/>
              <path class="cls-16" d="m773.05,230.67c-31.29,37.1-26.56,346.11-11.16,379.02,28.17,60.2,144.7,11.14,183.31-29.33-44.47-40.85-79.33-101.04-92.7-161.5-7.66-34.63-6.74-75.3,1.21-110.32,4.36-19.22,11.01-37.41,22.37-53.45,7.93-11.21,29.96-25.32,30.12-35.68l-133.14,11.26Z"/>
              <path class="cls-15" d="m779.96,443.35c-24.91-25.6-44.63-50.98-80.46-36.01-93.8,39.19-183.35,245.39-183.55,257.05-.25,14.16,41.06-.42,51.82,12.56,50.27,60.64,152.53,89.29,227.17,54.12,27.3-12.87,53.79-44.22,77.9-54.3l48.39-179.57c-25.61-33.31-119.82-31.79-141.27-53.84Z"/>
              <path class="cls-6" d="m996.73,497.14c8.7,82.37,12.17,148.85,12.61,164.61-3.01,1.69-5.77,2.87-8.32,3.55-8.35-4.6-16.48-10.47-24.31-17.45-31.15-27.8-57.48-73.41-73.1-128.91-5.45-19.36-9.59-39.94-12.18-61.38-12-99.47,12.98-188.78,58.65-229.3.79,2.35,1.57,4.93,2.33,7.73,21.55,79.5,35.58,178.35,44.32,261.15Z"/>
              <path class="cls-6" d="m715.1,711.41c-22.31,18.53-49.88,26.03-82.69,14.13-21.16-7.67-45.34-21.77-70.06-40.45,2.4-125.98,20.55-312.16,43.05-428.94,23.14-3.83,48.83-7.29,76.84-9.94-1.01,97.63,9.82,326.56,32.87,465.2Z"/>
              <path class="cls-11" d="m953.55,542.92c.47,1.58.95,3.67,1.45,6.17-8.48-15.07-20-26.58-35.37-32.8-22.42-9.06-65.68-2.03-87.66,8.87-61.67,30.6-52.03,121.59-93.81,169.96-59.25,68.59-192-19.52-235.23-68.83-37.76-43.07-86.46-91.39-100.97-147.18,21.11,42.3,58.31,80.1,88.5,114.56,43.23,49.31,175.97,137.42,235.22,68.83,41.78-48.37,32.14-139.36,93.82-169.95,21.97-10.91,65.23-17.93,87.65-8.87,23.46,9.47,37.9,31.25,46.39,59.23Z"/>
              <path class="cls-3" d="m996.73,497.14c8.7,82.37,12.17,148.85,12.61,164.61-59.58,33.64-22.91-140.8-99.12-142.75-73.03-1.87-120.4,37.57-138.54,96.34-21.91,70.95-68.32,135.94-139.26,110.2-128.25-46.5-367.18-328.95-166.12-435.11,0,0,29.33-11.35,81.92-23.17-.56,70.32-10.44,138.75-2.58,209.26,5.59,50.32,34.83,114.41,93.86,113.8,56.53-.57,88.16-51.38,115.94-91.83,20.88-30.41,26.5-65.06,60.53-81.81,27.78-13.68,70.94-26.25,99.43-10.36,29.77,16.61,32.68,55.88,57.17,77.4,7.11,6.25,15.4,10.72,24.17,13.42Z"/>
              <path class="cls-1" d="m820.89,999.14c48.89-33.2,122.71-72.16,175.05-84.18,29.39-42.74,33.5-194.86,24.29-243.58-4.33-22.85-9.6-19.13-25.1-24.28-16.13-5.36-21.93-119.36-77.87-135.79-23.21-6.81-63.3,2.95-85.29,13.85-61.67,30.6-52.03,121.59-93.81,169.96-59.25,68.59-192-19.52-235.23-68.83-56.58-64.54-137.67-140.83-91.65-236.36,25.53-52.98,94.97-101.45,148.44-113.85,21.21-4.91,41.69-9.17,61.4-12.86,53.11-9.93,100.64-15.71,142-19.04,53.21-4.28,96.2-4.51,127.68-4.29,38.69.27,60.01,1.19,61.6-3.93,3.86-12.45-2.42-22.16-12.28-30.6-52.99-45.39-111.61-71.01-169.55-84.01-48.45-10.87-96.44-12.9-140.28-10.27-56.44,3.38-106.01,14.51-140.9,24.48-26.31,7.53-44.28,14.41-50.5,16.83-35.45,13.78-65,30.23-94.01,54.9-41.42,35.23-74.39,94.16-81.17,147.48-7.03,55.33,12.2,110.17,31.42,158.36,21.69,54.36,22.51,110.55,28.7,167.95,4.11,38.07,22.53,81.33,50.64,111.82,20.52,22.25,52.14,43.26,77.63,58.89,78.8,48.32,267.73,144.16,368.78,147.32Z"/>
              <path class="cls-11" d="m402.54,479.01c-18.43-36.92-24.6-77.28-3.15-121.8,25.53-52.98,94.97-101.45,148.44-113.84,234.64-54.38,379.14-28.18,391.86-38.95.34.28.68.57,1.01.86,9.86,8.45,16.14,18.14,12.28,30.6-4.26,13.73-150.42-16.03-392.68,40.12-53.47,12.39-122.91,60.85-148.44,113.84-15.3,31.76-16.55,61.39-9.32,89.17Z"/>
              <path class="cls-8" d="m890.8,239.91c-31.48-.22-74.46,0-127.68,4.29-41.36,3.33-88.89,9.11-142,19.04-13.08-19.29-28.62-36.83-40.81-50.77-25.8-29.48-57.16-55.6-90.93-76.87,34.89-9.98,84.47-21.1,140.9-24.48,43.84-2.64,91.83-.6,140.28,10.27,45.86,31.02,88,72.48,120.23,118.53Z"/>
              <g class="cls-7">
                <path class="cls-8" d="m952.4,235.98c-1.59,5.12-22.92,4.2-61.6,3.93-31.48-.22-74.46,0-127.68,4.29-34.64-44.19-86.89-95.92-132.84-133.09,43.84-2.64,91.83-.6,140.28,10.27,57.95,13,116.56,38.62,169.55,84.01,9.86,8.43,16.14,18.14,12.28,30.6Z"/>
              </g>
              <g>
                <g>
                  <path class="cls-11" d="m1027.81,702.73c-11.15-84.6-55.65-147.77-107.41-146.65-58.57,1.27-104.27,84.39-102.07,185.65.03,1.41.07,2.82.12,4.22-1.48-11.12-2.37-22.62-2.63-34.4-2.19-101.26,43.51-184.38,102.08-185.65,57.76-1.25,106.46,77.55,109.91,176.83Z"/>
                  <path class="cls-14" d="m1030.56,727.64c.42,103.82-46.91,188.19-105.73,188.43-58.82.24-106.84-83.73-107.26-187.56-.42-103.83,46.92-188.19,105.73-188.43,58.82-.24,106.84,83.73,107.26,187.56Z"/>
                </g>
                <g class="cls-7">
                  <path class="cls-9" d="m940.88,648.05c-20.88,3.15-81.71-5.37-81.71-5.37,14.73,16.41,70.5,44.22,93.49,38.91,27.49-6.35,41.19-60.83,47.1-73.85-13.45,17.85-37.7,37.11-58.88,40.31Z"/>
                  <path class="cls-9" d="m938.64,710.73c-20.87,3.15-81.71-5.37-81.71-5.37,14.73,16.41,70.5,44.22,93.49,38.91,27.49-6.35,41.19-60.83,47.1-73.85-13.45,17.85-37.7,37.11-58.88,40.31Z"/>
                  <path class="cls-9" d="m944.35,765.41c-20.87,3.15-81.71-5.37-81.71-5.37,14.73,16.41,70.5,44.22,93.49,38.91,27.49-6.35,41.19-60.83,47.1-73.85-13.45,17.85-37.7,37.11-58.88,40.31Z"/>
                  <path class="cls-9" d="m943.84,825.86c-20.87,3.15-81.71-5.37-81.71-5.37,14.74,16.41,70.5,44.22,93.49,38.91,27.49-6.35,41.19-60.83,47.1-73.85-13.45,17.85-37.7,37.11-58.88,40.31Z"/>
                </g>
              </g>
            </g>
          </g>
          <g>
            <rect class="cls-11" x="481.89" y="724.75" width="131.67" height="428.08" transform="translate(-490.41 616.91) rotate(-42.51)"/>
            <path class="cls-11" d="m706.43,793.6c81.85,89.28,99.59,206.22,39.63,261.18-8.32,7.63-17.71,13.67-27.92,18.16-43.32,19.09-101.49,10.46-156.48-21.52-7.02-4.07-13.97-8.52-20.84-13.36-18.01-12.65-35.41-27.84-51.52-45.42-22.26-24.28-39.78-50.61-52.27-77.18-27.36-58.12-30.7-117.42-7.19-158.98,5.25-9.3,11.86-17.71,19.83-25.02,40.09-36.75,104.76-36.49,167.69-5.59,31.18,15.31,61.94,38.14,89.07,67.72Z"/>
            <path class="cls-12" d="m706.43,793.6c81.85,89.28,99.59,206.22,39.63,261.18-8.32,7.63-17.71,13.67-27.92,18.16l-74.31,68.12-82.17-89.64c-7.02-4.07-13.97-8.52-20.84-13.36l-1.5-11.02-12.3-90.2c4.44-2.01,22.98,4.7,33.05,5.35,18.1,1.18,31.79-3.06,48.23-12.4,4.64-2.63,8.85-5.5,12.62-8.59,17.03-13.96,24.82-32.59,20.42-56-12.27-65.33-117.45-92.39-173.57-113.3,21.82,2.76,70.2,11.62,117.62,25.38,18.86,5.47,32.96,14.95,50.45,20.85,17.5-23.56,1.76-50.95-18.47-72.26,31.18,15.31,61.94,38.14,89.07,67.72Z"/>
            <path class="cls-13" d="m604.21,887.31c35.89,39.15,59.27,83.65,68.91,125.61,1.22,5.29,2.22,10.56,3,15.75,1.97,13.24,2.51,26.11,1.57,38.34-.31,3.93-.76,7.81-1.37,11.6-1.68,10.49-4.53,20.41-8.59,29.59-1.37,3.1-2.87,6.1-4.51,9.01h0c-4.68,8.35-10.5,15.95-17.46,22.64-.53.51-1.08,1.02-1.63,1.53-1.96,1.79-3.97,3.5-6.05,5.1-8.3,6.44-17.54,11.42-27.49,15-3.8,1.36-7.7,2.51-11.7,3.47-13.22,3.17-27.45,4.11-42.28,2.95-6.17-.47-12.44-1.32-18.77-2.53-48.1-9.15-100.34-38.84-143.37-85.78-48.1-52.47-73.74-114.54-73.93-167.23-.02-6.63.36-13.12,1.16-19.4,1.74-13.93,5.49-26.94,11.29-38.63,1.86-3.74,3.94-7.34,6.21-10.8,4.34-6.57,9.45-12.6,15.34-18.01,1.3-1.19,2.63-2.35,3.99-3.46,2.66-2.19,5.43-4.22,8.29-6.1,7.36-4.83,15.35-8.63,23.83-11.43,3.2-1.05,6.46-1.96,9.78-2.73,9.09-2.12,18.66-3.2,28.56-3.27,3.78-.03,7.61.09,11.48.35,11.58.79,23.54,2.88,35.67,6.22,4.91,1.35,9.84,2.9,14.81,4.66,39.1,13.87,79.08,40.27,113.26,77.55Z"/>
            <path class="cls-1" d="m589.48,898.11c71.91,78.44,89.49,179.35,39.28,225.38-50.22,46.04-149.22,19.76-221.12-58.67-71.91-78.44-89.49-179.35-39.27-225.38,50.21-46.04,149.22-19.77,221.12,58.67Z"/>
            <path class="cls-12" d="m581.45,907.27c53.01,57.82,67.26,131.03,31.83,163.51-35.43,32.48-107.12,11.93-160.13-45.89-53.01-57.82-67.26-131.03-31.83-163.5,35.43-32.48,107.12-11.93,160.13,45.89Z"/>
            <g>
              <path class="cls-13" d="m455.24,1074.15c31.82,33.18,65.67,64.53,101.39,93.74-6.17-.47-12.44-1.32-18.77-2.53-53.41-44.68-102.76-94.09-146.25-148.17-26.4-32.83-50.88-67.51-71.05-104.84-.02-6.63.36-13.12,1.16-19.4,13.02,26.26,28.5,51.14,45.23,74.89,26.58,37.75,56.4,73.07,88.29,106.32Z"/>
              <path class="cls-13" d="m482.99,1046.9c39.53,41.2,82.17,79.59,127.62,114.58-3.8,1.36-7.7,2.51-11.7,3.47-66.26-51.49-127.16-109.85-179.55-175.01-26.42-32.86-50.92-67.58-71.1-104.95-5.41-10-10.54-20.22-15.25-30.68,1.86-3.74,3.94-7.34,6.21-10.8,14.78,34.53,34.11,66.72,55.48,97.07,26.6,37.74,56.4,73.07,88.29,106.32Z"/>
              <path class="cls-13" d="m510.74,1019.64c41.66,43.43,86.79,83.73,135.02,120.22-.53.51-1.08,1.02-1.63,1.53-1.96,1.79-3.97,3.5-6.05,5.1-70.68-53.62-135.59-114.91-190.99-183.8-26.41-32.86-50.93-67.58-71.1-104.95-6.25-11.59-12.17-23.48-17.45-35.69,2.66-2.19,5.43-4.22,8.29-6.1,14.8,34.65,34.18,66.94,55.61,97.37,26.59,37.74,56.4,73.07,88.29,106.31Z"/>
              <path class="cls-13" d="m538.5,992.39c39.99,41.69,83.18,80.5,129.24,115.82-1.37,3.1-2.87,6.1-4.51,9.01h0c-69.66-53.14-133.65-113.76-188.36-181.79-26.43-32.86-50.93-67.58-71.1-104.95-4.58-8.5-8.99-17.14-13.09-25.96,3.2-1.05,6.46-1.96,9.78-2.73,13.91,29.73,31.05,57.71,49.76,84.28,26.59,37.75,56.4,73.07,88.29,106.31Z"/>
              <path class="cls-13" d="m566.26,965.13c34.8,36.27,72.01,70.37,111.44,101.88-.31,3.93-.76,7.81-1.37,11.6-64-50.37-122.87-107.19-173.71-170.44-26.42-32.86-50.92-67.58-71.1-104.95-.85-1.56-1.68-3.14-2.51-4.71,3.78-.03,7.61.09,11.48.35,11.24,20.81,23.96,40.74,37.48,59.94,26.59,37.75,56.39,73.07,88.29,106.32Z"/>
              <path class="cls-13" d="m594.01,937.89c25.14,26.2,51.54,51.26,79.12,75.03,1.22,5.29,2.22,10.56,3,15.75-53.22-44.57-102.4-93.83-145.75-147.75-19.43-24.17-37.82-49.34-54.22-75.83,4.91,1.35,9.84,2.9,14.81,4.66,4.78,7.38,9.71,14.65,14.76,21.81,26.59,37.74,56.4,73.07,88.29,106.32Z"/>
            </g>
          </g>
        </g>
      </g>
    </g>
  </g>
</svg>