<?xml version="1.0" encoding="UTF-8"?>
<svg xmlns="http://www.w3.org/2000/svg" viewBox="0 0 492.78 508.99">
  <defs>
    <style>
      .cls-1, .cls-2 {
        fill: #ffb294;
      }

      .cls-3 {
        fill: #fff;
      }

      .cls-4 {
        fill: #d7cade;
      }

      .cls-4, .cls-5, .cls-6, .cls-7, .cls-8, .cls-2 {
        mix-blend-mode: multiply;
      }

      .cls-4, .cls-5, .cls-6, .cls-7, .cls-2 {
        opacity: .5;
      }

      .cls-5 {
        fill: #ffb193;
      }

      .cls-6, .cls-9 {
        fill: #8b9976;
      }

      .cls-10, .cls-8 {
        fill: #444a39;
      }

      .cls-11 {
        isolation: isolate;
      }

      .cls-12 {
        fill: #4d4d4d;
      }

      .cls-13, .cls-14 {
        fill: #dc3545;
      }

      .cls-7 {
        fill: #ad470c;
      }

      .cls-15 {
        fill: #383d30;
      }

      .cls-16 {
        fill: #6f7a5e;
      }

      .cls-14 {
        opacity: .25;
      }

      .cls-8 {
        opacity: .3;
      }

      .cls-17 {
        fill: #ed6618;
      }

      .cls-18 {
        fill: #1a1a1a;
      }

      .cls-19 {
        fill: #ec2126;
      }

      .cls-20 {
        fill: #fbb03b;
      }
    </style>
  </defs>
  <g class="cls-11">
    <g id="Layer_2" data-name="Layer 2">
      <circle class="cls-14" cx="259.28" cy="283.21" r="212.04"/>
      <g>
        <path class="cls-4" d="m270.98,399.7l-39.91-35.28c3.3-2.22,5.31-5.12,5.31-8.31,0-6.99-9.65-12.66-21.56-12.66-1.54,0-3.04.1-4.48.28-7.8-16.01-22.24-28.85-38.98-34.85-15.8-5.67-63.79-6.68-43.86,21.21,10.11,14.15,11.68,28.16,18.62,43.65,9.81,21.92,35.2,32.84,59.12,34.89,6.81.58,14.98-.06,18.5-5.92,4.58-7.63-2.27-16.69-5.11-25.13-.97-2.87-1.45-5.85-1.83-8.86,3.13-.17,6.06-.73,8.65-1.6l41.58,36.76c3.01,2.69,6.84-1.5,3.95-4.18Z"/>
        <g>
          <path class="cls-13" d="m222.47,41.87c.62,2.56-1.32,5.62-1.09,8.87.29,4.11-3.02,14.56-3.72,18.62,7.17-6.78,7.33-18.35,7.17-25.93-.04-1.82.38-3.95,0-5.75l-2.35,4.19Z"/>
          <g>
            <path class="cls-10" d="m209.29,147.3l10.8,9.1,9.17,8.86,3.02,2.75,5.65,10.2c.43,2.5,3.34.95,3.34.95.41,2.35,2.7,2.08,2.8.16l-.26-8.28,1.56.6,2.6,9.12c.67,2.24,2.89,1.9,2.89-.22l-1.94-8.51,3.77,7.08c.83,1.89,3,1.15,2.33-.8l-3.2-9.33-10.6-11.43-8.13-5.54-7.11-4.87-12.18-5.11-4.53,5.29Z"/>
            <polygon class="cls-5" points="223.38 159.56 230.41 162.61 238.81 163.46 243.77 162.27 243.49 159.96 248.37 167.09 248.93 172.01 245.39 171.63 243.83 171.03 239.98 173.99 237.53 172.78 232.3 168.01 229.27 165.26 223.38 159.56"/>
            <g>
              <path class="cls-9" d="m205.98,234.8l33.66-59.59s.09-.15.18-.3c3.77-6.25,10.83-9.96,18.38-9,10.2,1.3,17.42,10.62,16.12,20.82-.27,2.14-.91,4.13-1.82,5.95-.04.09-.1.18-.14.28-.12.23-.22.46-.35.68.05-.08-33.6,59.51-33.6,59.51-1.17,2.07-3.05,3.76-5.62,4.83-7.77,3.26-18.81-.37-24.66-8.11-3.91-5.17-4.5-10.88-2.14-15.07Z"/>
              <path class="cls-3" d="m214.87,227.45c-1.14,9.49,17.03,19.44,25.23,14.31l16.59-29.35c-7.8,5.12-25.85-4.72-25.34-14.1l-16.47,29.14Z"/>
              <path class="cls-20" d="m236.84,212.18l-13.78,23.34c3.41,2.57,7.89,4.32,11.54,4.32,1.2,0,2.23-.19,3.07-.55l12.54-22.19c-4.37-.27-9.28-2.13-13.37-4.92Z"/>
              <path class="cls-19" d="m232.53,208.56c-.7-.74-1.33-1.51-1.88-2.28l-12.51,22.12c.04,1.44.84,3.09,2.29,4.73.75.85,1.65,1.64,2.63,2.37l13.78-23.34c-1.59-1.08-3.06-2.29-4.32-3.61Z"/>
              <path class="cls-8" d="m227.08,253.71c2.56-1.08,4.45-2.77,5.62-4.83l33.66-59.58c.07-.14.18-.38.3-.6.05-.09.1-.18.14-.28.91-1.82,1.55-3.82,1.82-5.95.71-5.61-1.16-10.94-4.67-14.82,7,3.39,11.4,10.95,10.37,19.1-.27,2.14-.91,4.13-1.82,5.95-.04.09-.1.18-.14.28-.12.23-.22.46-.35.68.05-.08-33.6,59.51-33.6,59.51-1.17,2.07-3.05,3.76-5.62,4.83-7.01,2.94-16.66.27-22.78-5.96,5.52,2.99,11.99,3.82,17.08,1.69Z"/>
              <g class="cls-11">
                <path class="cls-18" d="m255.91,163.22l-2.43,4.49c-.97,1.8-.3,4.43,2.09,7.01,3.62,3.91,9.83,6.21,13.86,5.15,1.38-.36,2.33-1.07,2.83-2l2.43-4.49c-.5.93-1.45,1.64-2.83,2-4.03,1.06-10.24-1.24-13.86-5.15-2.39-2.58-3.06-5.21-2.09-7.01Z"/>
                <path class="cls-9" d="m258.73,161.22c-4.03,1.06-4.37,5.09-.73,9.02,3.62,3.91,9.83,6.21,13.86,5.15,4.04-1.06,4.37-5.09.75-9-3.63-3.92-9.83-6.23-13.87-5.17Z"/>
              </g>
              <g class="cls-11">
                <path class="cls-18" d="m264.41,157.86l-3.04,6c-.53.98-.17,2.42,1.14,3.84,1.98,2.14,5.38,3.4,7.58,2.82.75-.2,1.27-.59,1.55-1.1l3.04-6c-.28.51-.79.9-1.55,1.1-2.2.58-5.6-.68-7.58-2.82-1.31-1.41-1.67-2.85-1.14-3.84Z"/>
                <path class="cls-12" d="m265.95,156.77c-2.2.58-2.39,2.79-.4,4.93,1.98,2.14,5.38,3.4,7.58,2.82,2.21-.58,2.39-2.79.41-4.92-1.99-2.14-5.38-3.41-7.59-2.82Z"/>
              </g>
            </g>
            <path class="cls-18" d="m242.17,176.52l-2.58-6.47c-.35-.87.2-1.83,1.12-1.99l11.46-1.92,1.73-.27-.78-1.64c-.41-.86-1.34-1.33-2.27-1.16l-14.08,2.59c-.98.18-1.55,1.2-1.19,2.13l4.63,11.9,1.96-3.16Z"/>
            <path class="cls-17" d="m190.38,133.24c13.22,12.38,27.22,32.9,33.43,26.88l-.32-.33c-1.75-1.78-1.77-4.68.06-6.38,1.55-1.44,3.83-2.84,6.99-3.2l-26.76-40.93-13.4,23.96Z"/>
            <path class="cls-13" d="m190.38,133.24c13.22,12.38,27.22,32.9,33.43,26.88l-.32-.33c-1.75-1.78-1.77-4.68.06-6.38,1.55-1.44,3.83-2.84,6.99-3.2l-26.76-40.93-13.4,23.96Z"/>
            <path d="m137.71,290.56l-6.64,11.86s-4.41,5.26-3.33,16.27c0,0,3.05,4.82,15.59,3.38,0,0,16.15,5.63,26,5.63s7.6-5.14,1.97-9.48c-5.63-4.34-17.04-12.06-17.04-12.06l-2.12-10.13-14.44-5.47Z"/>
            <path d="m167.13,352.6l-1.08,10.01c-1.45,7.07-6.1,15.3-2.82,23.1l25.45,9.48c5.29,2.64,15.43,5.47,23.76,2.51,7.93-5.38,5.7-10.16,2.38-12.01l-18.89-10.48-8.85-7.35,1.47-16.74-21.41,1.47Z"/>
            <path class="cls-13" d="m191.59,212.1c-.64,6.6-1.65,13.57-3.06,20.94-.6,3.38-1.29,6.81-2.09,10.35-2.9,3.66-5.68,7.37-8.3,11.15-3.79,5.48-7.25,11.03-10.35,16.75-2.38,4.39-2.62,4.31-4.55,8.86-2.58,5.92-1.68,10.01-3.37,16.25-7.01,9.62-28.52.25-28.52-7.97,4.75-19.57,9.06-26.16,14.81-39.86,2.01-4.83,4.15-9.02,6.4-12.36,1.29-1.89,2.58-3.54,3.95-4.87l-1.89-12-10.31-64.91,45.66,18.24c.6,2.7,1.13,5.56,1.45,8.5,1.25,9.14,1.25,19.49.16,30.93Z"/>
            <path class="cls-7" d="m178.14,222.65v31.89c-6.73,9.66-12.4,19.69-16.83,30.16l-15.3-33.58.16-2.54c3.14-7.53,6.56-13.49,10.35-17.23l-1.89-12,23.52,3.3Z"/>
            <path class="cls-13" d="m204.11,281.4c-8.94,33.46-6.36,52.68-11.73,75.26-6.1,7.58-31.1,3.16-30.78-5.18,1.77-32.05,3.37-49.06,11.62-67.7l-5.44-12.48-15.22-35.07-11.48-26.5c-9.54-22.11-8.74-40.63,3.22-55.29l45.66,18.2s-.6,7.05-.6,7.05l-.12,1.33-1.57,18.85c1.41,4.03,2.7,8.09,3.91,12.24,6.4,21.79,10.31,45.02,12.52,69.3Z"/>
            <path class="cls-7" d="m204.11,281.4c-4.83-17.72-9.87-34.47-15.58-48.36-3.83-9.18-7.89-17.15-12.4-23.32l-4.19-30.24,17.32,1.53,2.17.16c1.25,9.14,1.25,19.49.16,30.93,6.4,21.79,10.31,45.02,12.52,69.3Z"/>
            <path class="cls-13" d="m205.9,139.75c-5.42,21.54-13.29,42.77-13.29,42.77,0,3.89-10.87,9.44-18.98,8.74-.6-.07-1.16-.13-1.69-.27-3.32-.66-25.12-.63-32.27-11.5-3.66-5.55-5.05-20.84-4.75-27.42,1.03-19.77,4.92-61.62,19.87-83.68,25.72-37.95,33.37-9.57,41.38,1,.8,1.06,1.6,2.33,2.33,3.69,5.12,9.5,8.61,25.66,9.34,41.11.43,9.31-.13,18.34-1.93,25.56Z"/>
            <path class="cls-7" d="m207.83,114.19c-.2.37-.4.73-.6,1.1-3.82-7.94-9.5-15.02-16.48-20.44-3.26-2.53-6.88-4.79-9.27-8.18-3.89-5.55-2.66-11.53,3.85-13.06,4.22-1,8.87-1.5,13.16-.53,5.12,9.5,8.61,25.66,9.34,41.11Z"/>
            <path class="cls-7" d="m205.91,139.74c-5.42,21.54-13.3,42.79-13.3,42.79,0,3.89-10.86,9.42-18.97,8.72-2.96-37.29-17.51-37.22-15.99-73.91l28.05-8.04,20.21,30.44Z"/>
            <g>
              <path class="cls-1" d="m201.17,74.34c-1.13,1.35-3.79,4.79-5.22,4.88-3.77.24-7.2,6.65-14.88.94-7.12-5.29-11.79-15.02-9.27-21.13,5.19-6.35,8.95-10.94,8.95-10.94l23.71,11.88s-.2,1.97-.68,4.85c-.07.3-.11.61-.16.93-1.05,5.71.9,4.52-2.44,8.58Z"/>
              <path class="cls-2" d="m197.25,83.97c-1.13,1.35-2.42,2.22-3.85,2.31-3.77.24-7.05-.84-9.75-2.73-3.91-9.48-1.46-25.07-1.46-25.07l21.58,6.35c-.07.3-.11.61-.16.93-1.05,5.71-3.02,14.15-6.37,18.21Z"/>
            </g>
            <path class="cls-10" d="m241.24,157.53l5.79,6.24-1.93,4.89-2.92,3.1c-1.48.41-2.02-.31-1.76-2l1.43-2.13-.99-2.22s-2.32-4.39.38-7.87Z"/>
            <path class="cls-10" d="m249.39,170.72s8.59,2.86,11.83,5.97c3.24,3.11,8.53,5.39,8.53,5.39l5.37,9.23-11.23,4.35-8.39-3.16-7.95-7.26-8.52-8.59,3.56-7.25,6.8,1.33Z"/>
            <path class="cls-13" d="m159.48,123.78c7.03,19.64,16.16,31.09,29.69,46.54,12.36,6.68,33.27,17.41,55.8,17.67,4.34-2.86,6.38-11.4,4.42-17.26,0,0-43.35-21.29-43.8-21.95-5.8-8.54-17.82-37.93-23.29-44.98-9.26-13.61-31.28,2.16-22.82,19.99Z"/>
            <path class="cls-10" d="m269.17,176.48c1.02-.46,2.03-1.09,2.52-2.09.21-.42.31-.91.21-1.36-.1-.46-.43-.88-.87-1.02-.65-.21-1.32.19-1.95.46-1.94.85-4.16.57-6.26.29-4.48-.59-8.19-1.37-12.69-1.78,1.57,1.82,2.35,3.91,3.93,5.73.73.84,1.5,1.71,2.54,2.09,1.82.66,3.97-.09,5.77-.52,2.3-.56,4.61-.81,6.8-1.8Z"/>
            <g class="cls-11">
              <path class="cls-3" d="m309.85,228.82l-38.2-52.04c-.31-.45-1.02-.62-1.94-.36-1.38.39-2.7,1.59-2.94,2.68-.08.38-.03.69.13.92l38.2,52.04c-.16-.24-.21-.55-.13-.92.24-1.1,1.56-2.3,2.94-2.68.91-.25,1.63-.09,1.94.36Z"/>
              <path class="cls-12" d="m309.98,229.74c.24-1.09-.68-1.67-2.07-1.29-1.38.39-2.7,1.59-2.94,2.68-.24,1.1.68,1.67,2.06,1.29,1.39-.39,2.7-1.59,2.95-2.69Z"/>
            </g>
            <g>
              <path class="cls-6" d="m296.89,278.32c-3.08-1.96-7.18-1.05-9.14,2.03-1.96,3.08-1.05,7.18,2.03,9.14,3.08,1.96,7.18,1.05,9.14-2.03,1.96-3.08,1.05-7.18-2.03-9.14Z"/>
              <path class="cls-6" d="m389.28,361.97c4.4-6.92,3.91-15.54-.55-21.83,4.87-2.05,9.2-5.55,12.25-10.35,7.99-12.56,4.29-29.22-8.27-37.22-4.89-3.11-10.39-4.43-15.77-4.16-.82-7.91-5.09-15.39-12.32-19.99-4.21-2.68-8.87-4.01-13.51-4.17-.05-4.22-2.15-8.32-5.97-10.76-3.78-2.41-8.34-2.6-12.16-.92.41-2.86-.82-5.84-3.42-7.49-2.42-1.54-5.37-1.51-7.72-.21.76-2.74-.27-5.75-2.79-7.36-3.08-1.96-7.18-1.05-9.14,2.03-1.94,3.05-1.06,7.09,1.95,9.07-2.52.95-4.77,2.66-6.32,5.1-3.83,6.03-2.06,14.02,3.97,17.85.29.18.6.29.9.45-1.53,1.21-2.89,2.67-3.99,4.4-4.06,6.38-3.55,14.34.65,20.11-2.06,1.32-3.99,2.93-5.68,4.87-9.8,11.15-8.7,28.13,2.45,37.93,2.85,2.5,6.07,4.28,9.46,5.38-3.76,11.43.5,24.38,11.12,31.14,12.56,7.99,29.22,4.29,37.22-8.27.23.11.43.27.65.41,9.12,5.8,21.22,3.12,27.03-6.01Z"/>
              <path class="cls-4" d="m415.62,462.96c1.67-5.6-2.87-10.97-10.73-13.8,4.44-2.62,7.61-6.01,8.76-9.89,3.03-10.16-8.79-19.82-26.4-21.57-6.85-.68-13.55-.05-19.38,1.56-4.57-4.83-12.77-8.47-22.9-9.47-5.89-.58-11.67-.19-16.89.95-2.01-2.68-6.24-4.74-11.59-5.28-5.3-.53-10.43.57-13.88,2.66-.87-1.94-3.61-3.51-7.26-3.87-3.39-.34-6.64.47-8.64,1.93-.42-1.95-2.97-3.6-6.5-3.95-4.32-.43-8.43,1.25-9.17,3.74-.74,2.47,2.11,4.81,6.36,5.28-2.34,1.28-4.04,2.97-4.63,4.95-1.45,4.88,4.22,9.51,12.66,10.34.41.04.8.03,1.21.05-1.13,1.18-1.96,2.48-2.38,3.88-1.54,5.16,2.72,10.11,10.03,12.67-1.67,1.4-3.05,2.94-4.03,4.63-5.67,9.74,3.41,20.3,20.28,23.57,4.31.84,8.7,1.11,12.96.9,1.14,8.31,11.85,15.45,26.73,16.92,17.6,1.75,34.33-5.08,37.35-15.24.31.01.6.06.9.09,12.78,1.27,24.93-3.69,27.12-11.07Z"/>
              <path class="cls-6" d="m372.63,390.96c2.65-4.16,1.42-9.68-2.74-12.33-4.16-2.65-9.68-1.42-12.33,2.74-2.65,4.16-1.42,9.68,2.74,12.33,4.16,2.65,9.68,1.42,12.33-2.74Z"/>
              <path class="cls-6" d="m423.78,341.02c-6.03-3.83-14.02-2.06-17.85,3.97-3.83,6.03-2.06,14.02,3.97,17.85,6.03,3.83,14.02,2.06,17.85-3.97,3.83-6.03,2.06-14.02-3.97-17.85Z"/>
              <path class="cls-6" d="m341.56,246.05c3.53,2.25,8.22,1.21,10.47-2.33,2.25-3.53,1.21-8.22-2.33-10.47-3.53-2.25-8.22-1.21-10.47,2.33s-1.21,8.22,2.33,10.47Z"/>
              <path class="cls-6" d="m302.09,349.71c-3.53-2.25-8.22-1.21-10.47,2.33-2.25,3.53-1.21,8.22,2.33,10.47s8.22,1.21,10.47-2.33c2.25-3.53,1.21-8.22-2.33-10.47Z"/>
              <path class="cls-6" d="m368.26,259.91c2.44,1.55,5.67.83,7.22-1.61,1.55-2.44.83-5.67-1.61-7.22s-5.67-.83-7.22,1.61c-1.55,2.44-.83,5.67,1.61,7.22Z"/>
              <path class="cls-6" d="m363.18,402.98c-2.44-1.55-5.67-.83-7.22,1.61-1.55,2.44-.83,5.67,1.61,7.22,2.44,1.55,5.67.83,7.22-1.61,1.55-2.44.83-5.67-1.61-7.22Z"/>
              <path class="cls-6" d="m348.28,395.97c-1.46-.93-3.4-.5-4.34.96-.93,1.46-.5,3.4.96,4.34,1.46.93,3.4.5,4.34-.96.93-1.46.5-3.4-.96-4.34Z"/>
              <path class="cls-6" d="m333.93,387.1c-2.44-1.55-5.67-.83-7.22,1.61-1.55,2.44-.83,5.67,1.61,7.22s5.67.83,7.22-1.61.83-5.67-1.61-7.22Z"/>
              <path class="cls-6" d="m404.96,370.59c-2.44-1.55-5.67-.83-7.22,1.61-1.55,2.44-.83,5.67,1.61,7.22s5.67.83,7.22-1.61.83-5.67-1.61-7.22Z"/>
            </g>
            <g>
              <g>
                <path class="cls-9" d="m223.05,66.53c3.19-3.82,7.16-3.12,8.87,1.55,1.71,4.67.51,11.55-2.68,15.37-3.19,3.82-7.16,3.12-8.87-1.55-1.71-4.67-.51-11.55,2.68-15.37Z"/>
                <path class="cls-16" d="m214.57,65.05c3.19-3.82,7.16-3.12,8.87,1.55,1.71,4.67.51,11.55-2.68,15.37-3.19,3.82-7.16,3.12-8.87-1.55-1.71-4.67-.51-11.55,2.68-15.37Z"/>
                <rect class="cls-9" x="210.87" y="69.94" width="22.06" height="8.62" transform="translate(110.59 280.07) rotate(-80.09)"/>
                <path class="cls-16" d="m214.57,65.05c3.19-3.82,7.16-3.12,8.87,1.55,1.71,4.67.51,11.55-2.68,15.37-3.19,3.82-7.16,3.12-8.87-1.55-1.71-4.67-.51-11.55,2.68-15.37Z"/>
              </g>
              <g>
                <path class="cls-1" d="m182.17,53.7s.3,12.59,4.47,18.95c4.17,6.35,12.09,10.85,15.29,11.74,3.2.9,5.81,1.19,8.47-.8,2.66-1.99,9.07-24.39,9.07-24.39,1.92-8.78,2.37-11.46,2.43-16.57.09-7.53-1.52-24.64-23.11-26.49-10.42-.9-18.33,5.06-21.65,13.66-2.64,6.83.18,20.7.18,20.7l4.85,3.21Z"/>
                <path d="m176.75,51.9l8.75,7.55,2.09-5.78c.6-2.85,3.51-4.59,6.3-3.74,4.69,1.43,12.08,2.83,19.87.97,7.41-1.77,9.58-5.98,9.58-5.98,2.81-11.62-8.49-25.96-21.41-28.42-15.69-2.99-24.35,6.04-26.46,15.26-1.91,8.38,1.29,20.14,1.29,20.14Z"/>
              </g>
              <path class="cls-10" d="m217.98,66.44c-1.84.09-3.98-.63-5.52-1.64-.79-.52-1.54-1.19-2.47-1.38-.91-.18-1.85.12-2.64.6-.79.47-1.47,1.11-2.21,1.66-2.78,2.08-6.24,2.96-9.49,4.18-3.25,1.22-6.56,3.03-8.09,6.14,2.68,1.8,4.64,4.38,7.14,6.43,2.5,2.05,5.12,3.7,7.76,5.58,2.89,2.06,6.7,2.1,9.32.2,4.32-3.13,6.15-14.75,6.21-21.77Z"/>
              <g>
                <path class="cls-16" d="m207.95,91.33c-2.4.03-3.39-1.65-2.22-3.74,1.18-2.09,4.08-3.81,6.49-3.84,2.4-.03,3.4,1.65,2.22,3.74s-4.08,3.81-6.49,3.84Z"/>
                <path class="cls-15" d="m205.5,90.25l-1.33-2.25c-.4-.68-.35-1.62.24-2.67,1.18-2.09,4.08-3.81,6.49-3.84,1.2-.01,2.05.4,2.45,1.08l1.33,2.25-9.17,5.43Z"/>
                <path class="cls-9" d="m207.95,91.33c-2.4.03-3.39-1.65-2.22-3.74,1.18-2.09,4.08-3.81,6.49-3.84,2.4-.03,3.4,1.65,2.22,3.74s-4.08,3.81-6.49,3.84Z"/>
              </g>
              <path class="cls-15" d="m208.78,89.86c-1.47.02-2.08-1.01-1.36-2.29.72-1.28,2.5-2.33,3.97-2.35,1.47-.02,2.08,1.01,1.36,2.29-.72,1.28-2.5,2.33-3.97,2.35Z"/>
              <path class="cls-15" d="m221.67,48.64c.74.06,1.33.71,1.57,1.42.23.71.19,1.48.13,2.22-.19,2.77-.34,7.45-2.22,9.5-1.82,1.99-4.62,2.34-7.27,1.85-1.44-.26-2.97-1.76-4.43-1.68-2.01.11-3.63,1.57-5.26,2.76-1.71,1.26-3.63,2.3-5.71,2.69-2.09.4-4.36.09-6.09-1.14-1.83-1.31-2.87-3.53-3.15-5.76-.28-2.24.12-4.5.7-6.68.41-1.53,2.52-1.19,4.09-1.02,4.68.51,9.42.75,14.1.2,4.68-.56,9.57-1.79,13.52-4.35Z"/>
              <path class="cls-15" d="m180.57,48.64c.2.19,10.02,8.3,10.02,8.3l1.03-3.75-11.05-7.97v3.43Z"/>
              <path class="cls-15" d="m188.28,71.73c-.91.55-4.45-12.81-6.96-23.09l2.17-1.32c1.54,9.26,4.5,17.82,8.6,25.83l-3.81-1.42Z"/>
              <g>
                <path class="cls-9" d="m183.49,74.41c0-4.97,3.49-6.99,7.8-4.5,4.31,2.49,7.8,8.53,7.8,13.51s-3.49,6.99-7.8,4.5c-4.31-2.49-7.8-8.53-7.8-13.51Z"/>
                <path class="cls-16" d="m176.03,78.72c0-4.97,3.49-6.99,7.8-4.5,4.31,2.49,7.8,8.53,7.8,13.51s-3.49,6.99-7.8,4.5c-4.31-2.49-7.8-8.53-7.8-13.51Z"/>
                <rect class="cls-9" x="183.25" y="70.04" width="8.62" height="22.06" transform="translate(-15.41 104.64) rotate(-30)"/>
                <path class="cls-10" d="m176.03,78.72c0-4.97,3.49-6.99,7.8-4.5,4.31,2.49,7.8,8.53,7.8,13.51s-3.49,6.99-7.8,4.5c-4.31-2.49-7.8-8.53-7.8-13.51Z"/>
                <path class="cls-9" d="m179.05,80.46c0-3.05,2.14-4.28,4.78-2.76,2.64,1.52,4.78,5.23,4.78,8.28s-2.14,4.28-4.78,2.76c-2.64-1.52-4.78-5.23-4.78-8.28Z"/>
              </g>
              <path class="cls-9" d="m220.9,59.23c-1.1,1.7-3.11,2.79-5.15,2.78-.51,0-1.01-.07-1.52-.16-1.07-.21-2.13-.56-3.21-.73-.38-.07-.77-.11-1.18-.11-1.53-.01-3.01.55-4.36,1.28-1.34.72-2.6,1.63-3.93,2.37-.91.5-1.89.95-2.89,1.08-.35.04-.71.04-1.07,0-.29-.03-.58-.11-.85-.21-.31-.11-.59-.25-.85-.43-1.1-.7-1.93-1.89-2.34-3.17-.05-.16-.1-.33-.14-.5-.44-1.83-.31-4.06.13-5.89.41-1.7,3.17-1.07,4.46-.89,1.61.22,3.17.34,4.74.35.31.01.61.01.92.01.69-.01,1.37-.04,2.07-.09,3.64-.24,7.26-1,10.69-2.28,1.25-.45,2.48-.98,3.68-1.57.39-.2.87-.39,1.28-.32.11.02.21.05.31.12.41.28.47.86.48,1.35.04,2.41.04,4.98-1.26,7.01Z"/>
              <path class="cls-1" d="m180.79,44.36c-1.22-1-3.14-1.33-4.35-.31-.67.57-1.01,1.47-1.07,2.35-.06.88.12,1.76.32,2.62.36,1.49.79,2.97,1.31,4.42.42,1.18.98,2.44,2.1,2.99,1.15.56,2.42,1.73,3.32.82.9-.91,1.48-3.81,1.51-5.09.07-2.72-.96-6.02-3.13-7.8Z"/>
              <path class="cls-3" d="m202.76,54.98l-6.85,10.11c-1.1-.7-1.93-1.89-2.34-3.17l4.5-7.27c1.56.21,3.12.33,4.69.34Z"/>
              <path class="cls-3" d="m221.38,50.74l-7.14,11.1c-1.07-.21-2.13-.56-3.21-.73l5.4-8.48c1.25-.45,2.48-.98,3.68-1.57.39-.2.87-.39,1.28-.32Z"/>
              <path class="cls-3" d="m205.74,54.91l-7.07,10.82c-.35.04-.71.04-1.07,0-.29-.03-.58-.11-.85-.21l6.91-10.52c.69-.01,1.37-.04,2.07-.09Z"/>
            </g>
          </g>
          <path class="cls-13" d="m218.32,22.06c-4.31-3.4-9.67-5.58-15.14-6.02-31.76-2.54-27.88,18.49-31.76,31.28-1.67,5.49-7.13,10.78-7.93,16.47-.8,5.68,6.89,14.42,11.86,17.28,24.48-9.13,8.67-31.44,21.46-40.83,6.33-4.65,16.43-4.82,21.17-1.82,3.93,2.49,3.45,9.02,3.61,9.69,2.57-2.95,2.54-5.42,3.24-10.43-1.19-5.67-1.98-12.05-6.5-15.63Z"/>
          <path class="cls-9" d="m183.49,74.41c0-4.97,3.49-6.99,7.8-4.5,4.31,2.49,7.8,8.53,7.8,13.51s-3.49,6.99-7.8,4.5c-4.31-2.49-7.8-8.53-7.8-13.51Z"/>
          <rect class="cls-9" x="183.25" y="70.04" width="8.62" height="22.06" transform="translate(-15.41 104.64) rotate(-30)"/>
          <path class="cls-10" d="m176.03,78.72c0-4.97,3.49-6.99,7.8-4.5,4.31,2.49,7.8,8.53,7.8,13.51s-3.49,6.99-7.8,4.5c-4.31-2.49-7.8-8.53-7.8-13.51Z"/>
          <path class="cls-9" d="m179.05,80.46c0-3.05,2.14-4.28,4.78-2.76,2.64,1.52,4.78,5.23,4.78,8.28s-2.14,4.28-4.78,2.76c-2.64-1.52-4.78-5.23-4.78-8.28Z"/>
        </g>
      </g>
    </g>
  </g>
</svg>