<?xml version="1.0" encoding="UTF-8"?>
<svg xmlns="http://www.w3.org/2000/svg" viewBox="0 0 492.78 508.99">
  <defs>
    <style>
      .cls-1 {
        fill: #ffb294;
      }

      .cls-2 {
        fill: #fff;
      }

      .cls-3 {
        fill: #d7cade;
      }

      .cls-3, .cls-4, .cls-5, .cls-6 {
        mix-blend-mode: multiply;
        opacity: .5;
      }

      .cls-7 {
        fill: #565e49;
      }

      .cls-8 {
        fill: #444a39;
      }

      .cls-9 {
        isolation: isolate;
      }

      .cls-10, .cls-5, .cls-11 {
        fill: #dc3545;
      }

      .cls-12 {
        fill: #8b9976;
      }

      .cls-4 {
        fill: #ad470c;
      }

      .cls-13 {
        fill: #383d30;
      }

      .cls-14 {
        fill: #6f7a5e;
      }

      .cls-15 {
        fill: #d3dec5;
      }

      .cls-11 {
        opacity: .25;
      }

      .cls-16 {
        fill: #ed6618;
      }

      .cls-17 {
        fill: #b4bda8;
      }

      .cls-18 {
        fill: #ec2126;
      }

      .cls-19 {
        fill: #666;
      }
    </style>
  </defs>
  <g class="cls-9">
    <g id="Layer_2" data-name="Layer 2">
      <ellipse class="cls-11" cx="228.29" cy="273.13" rx="217.72" ry="220.12"/>
      <g>
        <path class="cls-3" d="m122.7,394.64c8.33-3.84,20.44-3.35,29.28.76,2.01-6.65,4.14-13.25,6.5-19.78,2.83-7.81,6.18-15.9,12.65-21.03,9.48-7.52,22.73-6.66,34.74-7.55,10.23-.75,20.35-3.04,29.93-6.76,3.43-1.33,9.61-3.6,15.04-4.76,3.92-2.38,10.52-6,21.52-12.46,2.83-1.48,5.36-.68,7.04,1.01l29.81-16.44c5.62-3.16,12.22-4.36,18.57-3.37l9.19,1.43c1.13.18,1.9,1.24,1.73,2.38-.17,1.14-1.22,1.93-2.35,1.74l-9.19-1.43c-5.45-.85-11.11.18-15.94,2.89l-29.87,16.47c.41,2.08-.14,4.26-2.1,5.58-11.62,6.83-18.02,10.58-21.97,12.94-6.98,9.57-15.57,22.26-25.69,28.3-4.2,2.51-9.01,3.94-12.99,6.8-3.98,2.87-7.08,7.94-5.56,12.63,1.08,3.35,4.17,5.56,7.07,7.53,3.71,2.52,7.43,5.04,11.14,7.56,3.34,2.27,6.84,4.72,8.51,8.42,1.67,3.7.59,8.98-3.2,10.35-5.53,2-12.28-5.18-16.87-1.48-1.53,1.23-2.1,3.28-3.02,5.03-3.85,7.36-13.35,9.06-21.55,9.91-12.38,1.28-24.76,2.57-37.14,3.85-3.9.4-8.21.7-11.34-1.68-4.66-3.54-4.04-10.68-2.83-16.44.5-2.37,1.08-4.72,1.62-7.08-8.58.95-18.26-1.07-24.62-5.66-8.78-6.34-7.94-15.14,1.88-19.66Z"/>
        <g class="cls-6">
          <path class="cls-12" d="m368.78,231.37c-2.84,0-5.15,2.33-5.15,5.2s2.3,5.2,5.15,5.2,5.15-2.33,5.15-5.2-2.3-5.2-5.15-5.2Z"/>
          <path class="cls-12" d="m464.27,247.85c0-6.44-3.92-11.95-9.47-14.24,2.34-3.42,3.72-7.56,3.72-12.03,0-11.7-9.38-21.18-20.95-21.18-4.5,0-8.66,1.45-12.08,3.89-3.84-4.9-9.76-8.05-16.42-8.05-3.87,0-7.49,1.08-10.6,2.93-1.79-2.77-4.88-4.61-8.4-4.61s-6.55,1.8-8.35,4.52c-.92-2.07-2.97-3.52-5.37-3.52-2.23,0-4.15,1.27-5.15,3.11-.64-2.13-2.58-3.7-4.9-3.7-2.84,0-5.15,2.33-5.15,5.2s2.26,5.15,5.06,5.19c-1.25,1.69-2.02,3.77-2.02,6.05,0,5.61,4.5,10.16,10.05,10.16.27,0,.52-.06.78-.08-.5,1.44-.78,2.99-.78,4.6,0,5.94,3.66,11.01,8.82,13.05-.8,1.75-1.39,3.63-1.7,5.62-1.77,11.52,6.03,22.32,17.43,24.11,2.91.46,5.77.28,8.45-.43,2.31,9.17,10.5,15.96,20.28,15.96,11.57,0,20.95-9.48,20.95-21.18.2-.02.39,0,.59,0,8.4,0,15.22-6.89,15.22-15.38Z"/>
          <path class="cls-12" d="m465.46,274.09c0-3.87-3.11-7.02-6.94-7.02s-6.94,3.14-6.94,7.02,3.11,7.02,6.94,7.02,6.94-3.14,6.94-7.02Z"/>
          <path class="cls-12" d="m478.15,219.4c-5.55,0-10.05,4.55-10.05,10.16s4.5,10.16,10.05,10.16,10.05-4.55,10.05-10.16-4.5-10.16-10.05-10.16Z"/>
          <path class="cls-12" d="m384.61,191.13c3.26,0,5.9-2.67,5.9-5.96s-2.64-5.96-5.9-5.96-5.9,2.67-5.9,5.96,2.64,5.96,5.9,5.96Z"/>
          <ellipse class="cls-12" cx="401.99" cy="282.46" rx="5.9" ry="5.96"/>
          <path class="cls-12" d="m407.9,189.05c2.25,0,4.07-1.84,4.07-4.11s-1.82-4.11-4.07-4.11-4.07,1.84-4.07,4.11,1.82,4.11,4.07,4.11Z"/>
          <path class="cls-12" d="m464.27,286.04c-2.25,0-4.07,1.84-4.07,4.11s1.82,4.11,4.07,4.11,4.07-1.84,4.07-4.11-1.82-4.11-4.07-4.11Z"/>
          <path class="cls-12" d="m451.58,287.69c-1.35,0-2.44,1.1-2.44,2.47s1.09,2.47,2.44,2.47,2.44-1.1,2.44-2.47-1.09-2.47-2.44-2.47Z"/>
          <path class="cls-12" d="m438.47,287.86c-2.25,0-4.07,1.84-4.07,4.11s1.82,4.11,4.07,4.11,4.07-1.84,4.07-4.11-1.82-4.11-4.07-4.11Z"/>
          <path class="cls-12" d="m478.15,246.95c-2.25,0-4.07,1.84-4.07,4.11s1.82,4.11,4.07,4.11,4.07-1.84,4.07-4.11-1.82-4.11-4.07-4.11Z"/>
        </g>
        <path class="cls-19" d="m297.16,194.57c-.68-.27-1.19-.89-1.29-1.67-.15-1.14.64-2.19,1.77-2.35l37.06-6.21c6.37-.86,12.95.47,18.51,3.73l8.03,4.73c.98.58,1.32,1.86.74,2.85-.57,1-1.83,1.34-2.82.75l-8.03-4.73c-4.77-2.81-10.41-3.94-15.88-3.2l-37.06,6.21c-.36.05-.71,0-1.03-.13Z"/>
        <g>
          <polygon class="cls-10" points="264.19 171.95 276.57 179.16 289.37 183.1 294.3 186.72 294.02 199.1 278.74 201.82 271.48 193.17 266.21 188.05 260.25 178.41 264.19 171.95"/>
          <path class="cls-10" d="m276.58,179.16c-2.5,4.3-5.57,7.77-10.35,8.87,0,0-1-.48-2.71-1.4-.39-.21-.7-.39-1.07-.55-1.09-.57-2.41-1.29-3.89-2.12-8.64-4.78-23.19-13.45-36.7-24.12-.16-.11-.3-.23-.45-.37-1.73-1.36-3.43-2.76-5.09-4.18l-10.96-7.36-28.67-19.27,21.83-18.48,8.69-7.38,9.82,12.97,17.46,25.13,1.86,1.7,40.23,36.55Z"/>
          <path class="cls-10" d="m274.3,189.7c-3.73.71-4.72.13-6.23,3.39-.93,1.99-.76,6.2,1.65,8.13,1.28,1.36,2.85,1.48,4.44,1.21,4.04-.69,11.13-1.78,28.87-4.53,6.37-1.38,5.2-12.93-2.7-12.11-14.06,2.16-21.74,3.08-26.04,3.9Z"/>
          <path class="cls-10" d="m286.23,182.89c.22.09,5.44,3.4,5.44,3.4l2.28,5.13-1.12,5.34c-.38,1.95-2.99.93-3.09-1.42l.3-2.57-3.1-3.75-7.86-.1-4.75-2.4s2.74-3.44,2.72-3.54c-.02-.09,9.18-.09,9.18-.09Z"/>
          <path class="cls-10" d="m294.28,199.26c.21-.16.14-1.19.14-1.19.09-1.49-2.26-2.03-3.1-.49.35-2.01-2.7-1.34-4.1.7.02-1.04-2.25-1.4-3.64.62l-.97.99c-.43-.63-1.83-1.02-2.67.26l-.85,1.48-2.09.33s1.86,1.21,2.93,1.33,2.69-.55,2.69-.55c0,0,1.77.72,2.6.53.83-.19,1.75-1.31,1.75-1.31,0,0,1.48,1.01,2.17.78.69-.23,1.6-1.49,1.6-1.49,0,0,1.18.85,1.91.58.73-.27,1.62-2.57,1.62-2.57Z"/>
          <path class="cls-5" d="m263.48,186.64c-.32-.16-.66-.34-1.02-.55-1.09-.57-2.41-1.29-3.89-2.12-8.64-4.78-23.19-13.45-36.7-24.12-.07-.14-.23-.25-.45-.37-1.73-1.36-3.43-2.76-5.09-4.18l-10.96-7.36c-2.73-9.91-6.66-26.65-6.84-37.75l8.69-7.38,9.82,12.97,17.46,25.13,1.86,1.7c.57,5.91,1.25,11.68,2.77,15.54,3.75,9.47,16.62,18.99,24.33,28.44t.02.05Z"/>
        </g>
        <path class="cls-13" d="m174.01,317.08c-7.38,0-14.32-1.39-15.88-1.72-9.87-.06-17.11-2.95-22.13-8.84-13.45-15.8-8.09-51.68-.67-101.33,1.76-11.8,3.58-24,5.35-37.08.2-1.52,1.58-2.59,3.1-2.38,1.51.21,2.56,1.61,2.36,3.13-1.76,13.13-3.59,25.35-5.36,37.16-7.2,48.18-12.4,83-.6,96.87,3.96,4.65,9.93,6.91,18.25,6.91.2,0,.4.02.6.07.16.04,16.49,3.65,25.41.12,33.43-13.22,40.93-37.69,48.18-61.36,6.43-21,13.09-42.72,37.81-54.88,1.37-.67,3.02-.09,3.68,1.29.66,1.38.09,3.05-1.27,3.72-22.58,11.1-28.59,30.73-34.96,51.52-7.64,24.93-15.53,50.71-51.44,64.9-3.64,1.44-8.11,1.91-12.43,1.91Z"/>
        <path d="m198.43,437.26c-15.27,1.91-22.98,0-22.98,0,0,0-11.66,3.78-18.18.85-6.52-2.93-4.8-5.01-4.8-5.01.46-7.91,3.35-27.31,7.43-35.01h17.68l2.54,12.1,13.22,4.85c27.18,1.66,23.74,19.89,5.09,22.22Z"/>
        <path d="m188.01,343.79v31.92c.91-.03,1.74-.08,2.5-.18,8.3-.97,8.08-2.85,13.81-4.06,6.27-1.32,5.39.16,20.35-1.82,14.96-1.97,15.24-14.39,8.73-18-6.51-3.61-16.38-1.28-16.38-1.28l-7.13-1.95-4.94-1.34-3.77-8.66s-4.63,1.89-4.63,1.89l-8.54,3.47Z"/>
        <path class="cls-16" d="m175.75,282.15l-3.65,72.13c9.91.58,12.98.82,15.9.54,3.23-.27,6.3-1.09,9.18-2.48.73-.31,1.38-.7,2.07-1.09.08-.04.19-.12.27-.16,1.88-1.13,3.69-2.45,5.41-4,1.8-6.52,3.11-13.08,4.15-19.95.35-2.29.65-4.62.96-6.99.12-.82.19-1.63.31-2.48,1.08-9.16,1.96-18.91,3.11-29.58.5-4.85,1.11-9.94,1.8-15.22.19-1.44.38-2.87.61-4.35.27-2.1.58-4.23.92-6.41.38-2.37.27-4.85-.35-7.14-.12-.5-.27-1.01-.46-1.51l-3.88-10.52s-1.77-4.77-1.77-4.77l-11.9-32.3-17.89,6.25-15.28,5.32-6.3,2.17,15.86,42.24.92,20.3Z"/>
        <path class="cls-10" d="m198.01,230.43s16.05,52.19,7.37,93.41c0,0-12.46,44.14-18.69,69.53-1.66,6.78-7.64,11.52-14.55,11.6-2.65.03-5.46-.11-8.14-.57-5.2-.89-8.86-5.65-8.7-10.98.49-16.34-.16-40.47,12.63-72.46l-12.87-63.33c-10.31-10.28-15.62-24.13-7.81-47.36l50.75,20.17Z"/>
        <path class="cls-10" d="m214.5,174.27v52.83c0,.78-.06,1.56-.11,2.37-.28,17.58-23.69,12.46-36.19,9.32-.88-.19-1.68-.39-2.45-.58-12.03-2.06-26.67-7.87-28.87-26.82.77-1.98,3.33-18,3.52-20.25,2.06-26.35,4.62-40.76,1.65-59.48-.36-2.25-.44-4.92-.19-7.82.61-8.43,3.66-18.81,8.97-26.88.08-.14.19-.28.3-.42.99-1.5,2.09-2.95,3.27-4.23.36-.39.69-.75,1.05-1.11,3.19-3.26,6.93-5.68,11.23-6.68.11-.03.22-.06.33-.08,1.98-.47,4.1-.64,6.3-.45,2.59.19,5.31.86,8.17,2.09,9.69,5.84,14.53,13.74,18.33,21.37.08.19.19.39.28.58.74,1.56,1.46,3.09,2.17,4.59.5,1.67.94,3.31,1.35,4.95,1.62,6.57,2.64,13.02,3.14,19.39,1.05,12.35.11,24.54-2.26,37.31Z"/>
        <g>
          <path class="cls-1" d="m205.6,107.47l6.67-18.79-24.24-11.14-5.51,11.14c-1.98,7.12,20.31,23.52,23.07,18.79Z"/>
          <path class="cls-1" d="m206.89,95.77l11.04-2.57c2.47-.58,4.51-2.3,5.49-4.67,2.55-6.21,4.72-19.62,3.71-29.37-1.56-14.99-17.8-19.05-27.56-16.4-9.77,2.65-18.84,10.05-19.54,22.93-.7,12.88,8.55,23.28,8.55,23.28l18.32,6.8Z"/>
          <path d="m227.38,64.04c-.25.45-2.86,4.95-8.42,8.26-.06.03-.11.08-.17.11-.55.36-1.05.86-1.38,1.45-.3.47-.52.97-.66,1.53l-.05.17-.36,1.45-.36,1.34-.44,1.7-4.65,4.12-.5,1.7-.25.86-.06.19c-.06.22-.14.45-.25.67-.25.61-.58,1.17-1.02,1.67-1.05,1.34-2.61,2.23-4.38,2.39-3.58.31-9.27-.22-16.92-3.98-.99-.47-1.98-1-3.03-1.59,0,0-.14-.19-.39-.58-.94-1.42-3.27-5.31-4.65-10.52-.28-.92-.47-1.89-.63-2.92-.11-.64-.19-1.28-.28-1.95-.11-1.14-.17-2.31-.17-3.53.08-3.12.69-6.43,2.17-9.79.36-.83.77-1.67,1.27-2.5.03-.06.06-.08.08-.14,8.09-13.88,22.57-14.08,29.69-12.69.88.17,1.62.36,2.26.56,1.13.36,2.56.95,4.13,1.78,6.44,3.45,14.75,10.8,9.38,20.25Z"/>
        </g>
        <path class="cls-10" d="m173.5,237.65l6.48,20.68,4.99,12.37,8.39,23.28,3.23,46.35.77,11.34c.19-.04.84-.19,1.92-.5.08-.04.15-.04.27-.08,2.42-.58,6.41-1.59,10.37-2.68l-4.95-1.32c1.8-6.6,3.11-13.16,4.15-20.03.35-2.29.65-4.62.96-6.99.12-.82.19-1.63.31-2.48,1.08-9.16,1.96-18.91,3.11-29.58.5-4.85,1.11-9.94,1.8-15.22.19-1.44.38-2.87.61-4.35.27-2.1.58-4.23.92-6.41.38-2.37.27-4.85-.35-7.14-.15-.47-.31-.93-.46-1.4l-3.92-10.56c.04-.12-1.73-4.85-1.73-4.85-8.26,6.29-27.22,2.02-36.86-.43Z"/>
        <path class="cls-4" d="m173.48,237.74c12.48,3.13,40.63,9.32,40.92-8.26.06-.81.1-1.61.1-2.39v-10.1l-35.22-72.23-5.77,66.69-.03,26.3Z"/>
        <path class="cls-14" d="m209.75,95.68c3-7.91,12.86-10.41,16.3-18.14.28-.63.58-2.1.7-3.47.31.19,1.46.97,1.37,3.47-.14,3.85-.49,5.73-.13,9.57.24,2.54-1.41,5.18-3.56,6.51-2.14,1.34-4.75,1.65-7.27,1.77-2.52.12-5.01-.47-7.41.29Z"/>
        <g>
          <path class="cls-8" d="m231.76,87.38c0-4.5-3.13-6.33-6.98-4.08-3.86,2.25-6.98,7.72-6.98,12.23s3.13,6.33,6.98,4.08c3.86-2.25,6.98-7.72,6.98-12.23Z"/>
          <path class="cls-14" d="m238.44,91.27c0-4.5-3.13-6.33-6.98-4.08-3.86,2.25-6.98,7.72-6.98,12.23s3.13,6.33,6.98,4.08c3.86-2.25,6.98-7.72,6.98-12.23Z"/>
          <polygon class="cls-8" points="219.85 100.1 226.53 104 236.4 86.7 229.72 82.81 219.85 100.1"/>
          <path class="cls-14" d="m238.44,91.27c0-4.5-3.13-6.33-6.98-4.08-3.86,2.25-6.98,7.72-6.98,12.23s3.13,6.33,6.98,4.08c3.86-2.25,6.98-7.72,6.98-12.23Z"/>
          <path class="cls-12" d="m235.74,92.85c0-2.76-1.92-3.88-4.28-2.5s-4.28,4.73-4.28,7.49,1.92,3.88,4.28,2.5,4.28-4.73,4.28-7.49Z"/>
        </g>
        <path class="cls-8" d="m214.28,90.72l-2.01,1.92c-.33-.36-.66-.72-1.02-1.06-.77-.81-1.6-1.59-2.42-2.34-2.09-1.89-4.35-3.64-6.69-5.2-6.33-4.26-13.48-7.23-20.91-8.74-.58-.14-1.18-.25-1.76-.33-.28-.92-.47-1.89-.63-2.92.55.06,1.1.14,1.65.25.66.11,1.29.25,1.95.39.91.19,1.82.42,2.72.67,9.19,2.42,17.83,7.04,24.99,13.35.72.64,1.43,1.28,2.12,1.98.69.64,1.35,1.34,2.01,2.03Z"/>
        <path class="cls-8" d="m223.69,83.37l-2.45,1.31c-1.4-2.7-3.03-5.29-4.9-7.68-3.74-4.95-8.37-9.24-13.68-12.55-3.94-2.48-8.15-4.4-12.55-5.73-.94-.31-1.87-.56-2.81-.75-1.73-.45-3.49-.78-5.26-1-.5-.08-.99-.14-1.49-.19.36-.83.77-1.67,1.27-2.5.03-.06.06-.08.08-.14.52.06,1.02.14,1.51.22,1.87.28,3.69.67,5.5,1.14.96.25,1.9.53,2.83.83,4.35,1.39,8.5,3.31,12.36,5.76,5.06,3.17,9.55,7.15,13.29,11.77,2.39,2.95,4.51,6.12,6.27,9.52Z"/>
        <path class="cls-8" d="m217.99,43.78c-.91-.03-1.84-.03-2.78.03-7.24.45-14.28,3.42-19.68,8.37-1.38,1.28-2.64,2.67-3.77,4.15-.61.78-1.16,1.56-1.65,2.39-2.81,4.4-4.51,9.43-4.95,14.63-.06.47-.08.95-.11,1.42l-2.75-.11c.03-.67.08-1.31.14-1.98.52-5.2,2.2-10.27,4.87-14.72.5-.83,1.05-1.67,1.62-2.48,1.38-1.95,2.97-3.76,4.76-5.37,4.16-3.81,9.19-6.54,14.58-7.98,1.1-.28,2.2-.53,3.33-.7.88.17,1.62.36,2.26.56,1.13.36,2.56.95,4.13,1.78Z"/>
        <path class="cls-12" d="m221.09,74.07c3.77,4.69,8.38,2.87,8.73-.35.34-3.17.99-11.32-1.71-11.32-1.96,2.78-10.13,7.79-7.02,11.67Z"/>
        <path class="cls-8" d="m223.41,73.94c-1.87.75-4.18,1.28-6.71,1.61-3.25.5-6.91.7-10.46.7-6.08,0-11.97-.58-15.47-1.28-3.52-.7-8.06-2.09-12.22-4.87-.11-1.14-.17-2.31-.17-3.53,4.21,3.34,9.19,4.92,12.93,5.68,5.92,1.17,18.88,2,27.46.17,1.32-.28,2.56-.64,3.63-1.06l.99,2.59Z"/>
        <path class="cls-1" d="m210.78,75.1c-.33.59-.45,1.26-.52,1.93-.21,1.97-.02,4.01.56,5.97.23.77.53,1.55,1.13,2.17.6.62,1.55,1.04,2.4.86,1.16-.25,1.64-1.4,1.89-2.43.47-1.95,1.32-5.01.4-7.04-.96-2.12-4.4-4.03-5.86-1.46Z"/>
        <path class="cls-10" d="m229.11,59.03c-5.37,8.74-12.85,5.34-14.83,22.12-1.27,10.68,2.2,19.7-4.46,26.29-.3.31-.63.61-.99.89-7.87.58-16.4,1.28-22.76-3.42-1.9-1.42-3.55-3.06-4.93-4.87-3.25-4.31-4.87-9.6-4.16-15.16.03-.14.03-.28.03-.45.47-4.15-.25-9.54-.44-15.22-.55-13.16,1.51-27.66,26.25-30.55,5.94-.7,12.25-.5,17.56,2.34,5.28,2.81,11.86,12.88,8.72,18.03Z"/>
        <path class="cls-4" d="m200.68,106.02c-.61.86-1.76,1.11-2.81,1.17-6.19.39-11.7-3.37-16.73-7.15-.44-.33-.85-.67-1.29-1-3.77-2.87-7.51-4.98-11.94-6.65-1.13-.42-1.93-.81-2.45-1.2,3.27-3.34,7.13-5.79,11.56-6.76.47-4.15-.25-9.54-.44-15.22.41-1.81.69-3.64.77-5.48-.33,7.15,2.17,14.22,5.97,20.25.14.22.3.47.44.7,4.07,6.2,9.47,11.38,14.97,16.3,1.49,1.31,3.08,3.42,1.95,5.04Z"/>
        <path class="cls-12" d="m213.62,117.57c-3.91-4.51-10.26-7.18-17.5-7.29-11.26-.19-22.07,5.87-29.66,16.55l-4.46-3.26c8.64-12.19,21.16-19,34.21-18.86,5.09.08,9.85,1.25,13.9,3.31.74,1.56,1.46,3.09,2.17,4.59.5,1.67.94,3.31,1.35,4.95Z"/>
        <path class="cls-12" d="m176.69,84.51c-2.28,4.2-5.06,7.68-7.82,11.1-5.94,7.46-11.59,14.47-12.44,28.49l-4.57-.28-.91-.06c.77-12.6,5.04-20.28,9.88-26.82.08-.14.19-.28.3-.42,1.07-1.45,2.17-2.84,3.27-4.23.36-.39.69-.75,1.05-1.11,3.19-3.26,6.93-5.68,11.23-6.68Z"/>
        <path class="cls-12" d="m196.44,218.26c-.73,0-1.48-.03-2.26-.09-10.46-.83-20.64-5.67-27.92-13.29-7.29-7.62-11.74-18.07-12.21-28.66l5.5-.25c.41,9.26,4.3,18.38,10.67,25.04,6.37,6.66,15.26,10.89,24.4,11.62,2.94.23,6.86.02,8.87-2.29l4.14,3.67c-2.46,2.83-6.21,4.27-11.18,4.27Z"/>
        <path class="cls-8" d="m235.53,232.79c.49,0,9.43,11.02,9.43,11.02l9.27,7.24,8.3,12.83,1.3,5.54v4.71c0,3.18-2.66,2.74-2.93.49l-.68,5.97c-.35,2.53-2.57,2.53-2.9.08l-1.02-7.15-1.79,8.88c-.65,2.3-3.25,1.7-3.04-.44l.98-5.26-2.77-5.76.49,5.76-1.2,3.99c-.97,2.32-2.92,1-2.54-1.68l.6-3.45-4.54-6.48c-1.26-1.8-2.17-3.84-2.67-5.99l-1.19-5.13-3.09-5.97-4.23-13.1,4.23-6.08Z"/>
        <path class="cls-10" d="m208.45,149.74l5.09,41.6c8.33,16.62,21.37,34.22,31.43,52.47l-11.06,9.58c-14.3-10.57-29.38-28.77-44.57-48.06l-10.6-49.34c-7.94-30.67,25.89-28.61,29.71-6.25Z"/>
        <g>
          <g>
            <g>
              <path class="cls-14" d="m130.91,87.63c-9.82,4.52-10.66,13.33-1.88,19.66s23.87,7.81,33.69,3.29c9.82-4.52,10.66-13.33,1.88-19.66-8.78-6.34-23.87-7.81-33.69-3.29Z"/>
              <path class="cls-17" d="m123,96.78l-9.22,96.62c-.34,3.56,1.65,7.34,6.04,10.51,8.78,6.34,23.87,7.81,33.69,3.29,4.91-2.26,7.58-5.59,7.91-9.15l9.22-96.62-47.64-4.65Z"/>
              <path class="cls-2" d="m162.18,158.07l-2.12,22.2c-1.16,1.01-2.55,1.91-4.25,2.69-9.8,4.53-24.89,3.06-33.68-3.28-1.36-.97-2.45-2.03-3.36-3.09l2.12-22.22c.9,1.08,2,2.12,3.36,3.09,8.79,6.34,23.87,7.81,33.68,3.28,1.7-.78,3.09-1.68,4.25-2.67Z"/>
              <path class="cls-18" d="m164.21,136.7l-1.28,13.43c-1.16,1.01-2.55,1.91-4.25,2.69-9.8,4.51-24.88,3.03-33.68-3.28-1.36-1-2.45-2.03-3.36-3.09l1.28-13.45c.9,1.08,2,2.12,3.36,3.09,8.79,6.34,23.87,7.81,33.68,3.28,1.7-.78,3.09-1.68,4.25-2.67Z"/>
              <path class="cls-15" d="m130.91,87.63c-9.82,4.52-10.66,13.33-1.88,19.66s23.87,7.81,33.69,3.29c9.82-4.52,10.66-13.33,1.88-19.66-8.78-6.34-23.87-7.81-33.69-3.29Z"/>
            </g>
            <g>
              <ellipse class="cls-14" cx="147.7" cy="89.87" rx="9.88" ry="16.92" transform="translate(43.77 228.04) rotate(-84.37)"/>
              <path class="cls-13" d="m130.86,88.23l-.8,8.34c-.24,2.52,1.16,5.19,4.27,7.43,6.21,4.48,16.88,5.52,23.82,2.32,3.47-1.6,5.36-3.95,5.6-6.47l.8-8.34-33.69-3.29Z"/>
              <ellipse class="cls-15" cx="147.7" cy="89.87" rx="9.88" ry="16.92" transform="translate(43.77 228.04) rotate(-84.37)"/>
            </g>
            <path class="cls-13" d="m143.7,86.99c-2.47,1.14-2.68,3.35-.47,4.94,2.21,1.59,6,1.96,8.46.83,2.47-1.14,2.68-3.35.47-4.94-2.21-1.59-6-1.96-8.46-.83Z"/>
            <g>
              <path class="cls-14" d="m147.84,64.69c-1.3.6-1.42,1.77-.25,2.61s3.17,1.04,4.47.44c1.3-.6,1.42-1.77.25-2.61-1.17-.84-3.17-1.04-4.47-.44Z"/>
              <path class="cls-7" d="m146.79,65.9l-2.23,23.35c-.05.47.22.98.8,1.4,1.17.84,3.17,1.04,4.47.44.65-.3,1.01-.74,1.05-1.22l2.23-23.35-6.33-.62Z"/>
              <path class="cls-12" d="m147.84,64.69c-1.3.6-1.42,1.77-.25,2.61s3.17,1.04,4.47.44c1.3-.6,1.42-1.77.25-2.61-1.17-.84-3.17-1.04-4.47-.44Z"/>
            </g>
            <g>
              <path class="cls-14" d="m161.02,81.59c-2.58,1.19-4.45-.16-4.18-3.01.27-2.85,2.58-6.13,5.16-7.32s4.45.16,4.18,3.01c-.27,2.85-2.58,6.13-5.16,7.32Z"/>
              <path class="cls-13" d="m157.87,81.6l-23.14-16.69c-.76-.55-1.16-1.6-1.02-3.02.27-2.85,2.58-6.13,5.16-7.32,1.29-.59,2.4-.55,3.16,0l23.14,16.69-7.3,10.35Z"/>
              <path class="cls-13" d="m161.02,81.59c-2.58,1.19-4.45-.16-4.18-3.01.27-2.85,2.58-6.13,5.16-7.32s4.45.16,4.18,3.01c-.27,2.85-2.58,6.13-5.16,7.32Z"/>
            </g>
          </g>
          <path class="cls-13" d="m154.84,193.03c-9.82,4.52-24.9,3.05-33.69-3.29-4.39-3.17-6.38-6.95-6.04-10.51l-.59,6.03c-.34,3.56,1.65,7.34,6.04,10.51,8.78,6.34,23.87,7.81,33.69,3.29,4.91-2.26,7.58-5.59,7.91-9.15l.56-5.84c-.41,3.49-3.06,6.75-7.88,8.97Z"/>
          <path class="cls-13" d="m161.48,124.34c-9.82,4.52-24.9,3.05-33.69-3.28-4.39-3.17-6.38-6.95-6.04-10.51l-.59,6.03c-.34,3.56,1.65,7.34,6.04,10.51,8.78,6.34,23.87,7.81,33.69,3.29,4.91-2.26,7.58-5.59,7.91-9.15l.56-5.84c-.41,3.49-3.06,6.75-7.88,8.97Z"/>
        </g>
        <path class="cls-3" d="m463.98,307.44c-4.05-3.67-10.95-5.63-17.27-5.26-.1-2.66-1.49-5.44-4.3-7.99-7.35-6.68-21.55-9.25-31.71-5.74-3.95,1.36-6.7,3.45-8.16,5.88-6.45-1.63-13.63-1.64-19.48.38-3.4,1.17-5.9,2.89-7.47,4.89-3.32-1.04-7.19-1.15-10.28-.09-3.06,1.06-4.62,3.01-4.5,5.11-2.11-.9-4.82-1.11-6.93-.38-1.96.68-2.85,1.98-2.56,3.34-1.9-1.02-4.59-1.33-6.63-.63-2.5.86-3.05,2.89-1.25,4.53,1.79,1.62,5.22,2.25,7.71,1.43-.03,1.35.6,2.76,2.03,4.06,3.53,3.2,10.34,4.43,15.21,2.75.23-.08.42-.19.63-.28.47.97,1.19,1.94,2.21,2.86,3.73,3.39,10.13,5.17,15.94,4.78.4,1.24,1.06,2.49,2.04,3.72,5.69,7.11,19.32,10.91,30.46,8.47,2.84-.62,5.24-1.59,7.15-2.8,7.78,4.53,19.25,5.92,27.84,2.96,10.16-3.51,12.44-11.76,5.08-18.44.16-.07.35-.12.52-.18,7.38-2.55,9.03-8.54,3.69-13.39Z"/>
      </g>
    </g>
  </g>
</svg>