<svg xmlns="http://www.w3.org/2000/svg" viewBox="0 0 45.895 45.895">
  <defs>
    <style>
      .w-icon-user {
        fill: #adadad;
      }
    </style>
  </defs>
  <g id="profile-user_1_" data-name="profile-user" transform="translate(0 -0.001)">
    <path id="Path_10558" data-name="Path 10558" class="w-icon-user" d="M22.947,0A22.946,22.946,0,1,0,45.895,22.947,22.947,22.947,0,0,0,22.947,0Zm0,6.861a7.59,7.59,0,1,1-7.589,7.59A7.59,7.59,0,0,1,22.947,6.862Zm-.005,33.032A16.841,16.841,0,0,1,11.976,35.85a3.234,3.234,0,0,1-1.135-2.458,7.654,7.654,0,0,1,7.692-7.652h8.832a7.643,7.643,0,0,1,7.68,7.652,3.226,3.226,0,0,1-1.134,2.457A16.835,16.835,0,0,1,22.942,39.894Z" transform="translate(0 0)"/>
  </g>
</svg>