<?xml version="1.0" encoding="UTF-8"?>
<svg xmlns="http://www.w3.org/2000/svg" viewBox="0 0 526.78 508.99">
  <defs>
    <style>
      .cls-1 {
        fill: #348ba8;
        opacity: .2;
      }

      .cls-1, .cls-2 {
        mix-blend-mode: multiply;
      }

      .cls-3, .cls-4, .cls-5 {
        fill: #fff;
      }

      .cls-6 {
        isolation: isolate;
      }

      .cls-7 {
        fill: #e8f6f7;
      }

      .cls-8, .cls-9 {
        fill: #dc3545;
      }

      .cls-4 {
        opacity: .5;
      }

      .cls-2 {
        fill: #cc95a3;
        opacity: .3;
      }

      .cls-10 {
        fill: #603813;
      }

      .cls-11 {
        fill: #333;
      }

      .cls-12 {
        fill: #42210b;
      }

      .cls-13 {
        fill: #383d30;
      }

      .cls-5 {
        opacity: .75;
      }

      .cls-14 {
        fill: #f0c3a3;
      }

      .cls-9 {
        opacity: .25;
      }

      .cls-15 {
        fill: #ffecd6;
      }

      .cls-16 {
        fill: #ccc;
      }

      .cls-17 {
        fill: #ec2126;
      }

      .cls-18 {
        fill: #754c24;
      }

      .cls-19 {
        fill: #fbb03b;
      }
    </style>
  </defs>
  <g class="cls-6">
    <g id="Layer_2" data-name="Layer 2">
      <circle class="cls-9" cx="242.18" cy="264.27" r="203.79"/>
      <g>
        <path class="cls-1" d="m47.74,284.98l294.57,170.07c7.79,4.49,20.41,4.49,28.19,0l122.82-70.91c7.79-4.49,7.79-11.78,0-16.28L198.74,197.8c-7.79-4.49-20.41-4.49-28.19,0l-122.82,70.91c-7.79,4.49-7.79,11.78,0,16.28Z"/>
        <g>
          <g>
            <g>
              <path class="cls-15" d="m446.18,257.15v12.75c0,1.21,2.34,1.18,3.35,1.15l3.27-7.18c1.13-1.35,2.09-4.19,2.12-6.28l.09-7.21c.01-.95.97-1.81.59-1.97-.48-.19-1.25-.4-1.69-.02l-6.49,5.37c-.64.55-1.24,2.2-1.24,3.38Z"/>
              <path class="cls-14" d="m448.97,257.15v12.75c0,1.21.45,1.54,1.01.75l4.37-6.77c.96-1.35,1.77-4.19,1.79-6.28l.08-7.21c.02-1.77-.54-2.46-1.33-1.65l-4.87,5.04c-.54.55-1.05,2.2-1.05,3.38Z"/>
            </g>
            <path class="cls-13" d="m445.03,282.04c-.07,0-.15,0-.23-.02-.6-.12-.98-.71-.86-1.3l2.27-10.98c.12-.6.7-.98,1.3-.86.6.12.98.71.86,1.3l-2.27,10.98c-.11.52-.57.88-1.08.88Z"/>
            <path class="cls-13" d="m440.52,275.79c-.16,0-.31-.03-.46-.1-.55-.26-.79-.91-.54-1.46l6.89-14.95c.26-.55.91-.79,1.46-.54.55.26.79.91.54,1.46l-6.89,14.95c-.19.4-.58.64-1,.64Z"/>
          </g>
          <polygon class="cls-13" points="428.12 322.96 299.62 397.15 299.62 353.79 428.12 279.6 428.12 322.96"/>
          <polygon class="cls-13" points="197.98 190.08 69.48 264.27 69.48 220.91 197.98 146.73 197.98 190.08"/>
          <g>
            <path d="m339.24,382.15c-6.49-3.75-12.37-4.09-16.61-1.63l-12.65,7.35c-4.17,2.41-6.79,7.59-6.81,14.97-.04,14.82,10.38,32.86,23.27,40.3,6.9,3.98,13.09,4.09,17.38,1.09-.26.18-.5.38-.77.54l12.65-7.35c4.19-2.44,6.79-7.61,6.81-14.97.04-14.82-10.38-32.86-23.27-40.3Z"/>
            <path class="cls-11" d="m326.58,389.5c12.89,7.44,23.31,25.49,23.27,40.3-.04,14.82-10.53,20.79-23.42,13.35-12.89-7.44-23.31-25.49-23.27-40.3.04-14.82,10.53-20.79,23.42-13.35Zm-.13,45.58c9.02,5.21,16.34,1.03,16.37-9.33.03-10.36-7.25-22.98-16.27-28.19-9.02-5.21-16.36-1.03-16.38,9.34s7.26,22.97,16.28,28.18h0Z"/>
            <path class="cls-3" d="m326.55,403.34c6.23,3.6,11.28,12.33,11.26,19.51-.02,7.16-5.1,10.06-11.34,6.46-6.25-3.61-11.28-12.35-11.26-19.51.02-7.18,5.09-10.07,11.34-6.46Z"/>
            <path class="cls-16" d="m326.56,397.56c9.02,5.21,16.3,17.82,16.27,28.19-.03,10.36-7.35,14.54-16.37,9.33-9.02-5.21-16.31-17.82-16.28-28.18s7.37-14.54,16.38-9.34Zm-.09,31.75c6.23,3.6,11.32.7,11.34-6.46.02-7.18-5.03-15.91-11.26-19.51-6.25-3.61-11.32-.72-11.34,6.46-.02,7.16,5.02,15.9,11.26,19.51h0Z"/>
            <path d="m339.24,382.15c-6.49-3.75-12.37-4.09-16.61-1.63l-12.65,7.35c4.25-2.47,10.12-2.12,16.61,1.63,12.89,7.44,23.31,25.49,23.27,40.3-.02,7.36-2.62,12.54-6.81,14.97l12.65-7.35c4.19-2.44,6.79-7.61,6.81-14.97.04-14.82-10.38-32.86-23.27-40.3Z"/>
          </g>
          <g>
            <path d="m109.63,249.9c-6.49-3.75-12.37-4.09-16.61-1.63l-12.65,7.35c-4.17,2.41-6.79,7.59-6.81,14.97-.04,14.82,10.38,32.86,23.27,40.3,6.9,3.98,13.09,4.09,17.38,1.09-.26.18-.5.38-.77.54l12.65-7.35c4.19-2.44,6.79-7.61,6.81-14.97.04-14.82-10.38-32.86-23.27-40.3Z"/>
            <path class="cls-11" d="m96.98,257.25c12.89,7.44,23.31,25.49,23.27,40.3-.04,14.82-10.53,20.79-23.42,13.35-12.89-7.44-23.31-25.49-23.27-40.3.04-14.82,10.53-20.79,23.42-13.35Zm-.13,45.58c9.02,5.21,16.34,1.03,16.37-9.33.03-10.36-7.25-22.98-16.27-28.19-9.02-5.21-16.36-1.03-16.38,9.34-.03,10.36,7.26,22.97,16.28,28.18h0Z"/>
            <path class="cls-3" d="m96.94,271.09c6.23,3.6,11.28,12.33,11.26,19.51-.02,7.16-5.1,10.06-11.34,6.46-6.25-3.61-11.28-12.35-11.26-19.51.02-7.18,5.09-10.07,11.34-6.46Z"/>
            <path class="cls-16" d="m96.95,265.31c9.02,5.21,16.3,17.82,16.27,28.19-.03,10.36-7.35,14.54-16.37,9.33-9.02-5.21-16.31-17.82-16.28-28.18.03-10.36,7.36-14.54,16.38-9.34Zm-.09,31.75c6.23,3.6,11.32.7,11.34-6.46.02-7.18-5.03-15.91-11.26-19.51-6.25-3.61-11.32-.72-11.34,6.46-.02,7.16,5.02,15.9,11.26,19.51h0Z"/>
            <path d="m109.63,249.9c-6.49-3.75-12.37-4.09-16.61-1.63l-12.65,7.35c4.24-2.47,10.12-2.12,16.61,1.63,12.89,7.44,23.31,25.49,23.27,40.3-.02,7.36-2.62,12.54-6.81,14.97l12.65-7.35c4.19-2.44,6.79-7.61,6.81-14.97.04-14.82-10.38-32.86-23.27-40.3Z"/>
          </g>
          <path class="cls-14" d="m366.86,387.81c46.09-21.38,86.89-43.89,118.43-68.09-.16-.19-34.19-39.7-34.19-39.7-30.74,23.09-71.31,46.44-118.27,68.29l34.03,39.5Z"/>
          <path class="cls-5" d="m422.91,303.3l29.14,35.52c2.5-1.57,4.93-3.14,7.32-4.71l-29.7-35.18c-2.22,1.46-4.47,2.92-6.77,4.38Z"/>
          <path class="cls-5" d="m432.48,297.06l29.82,35.1c3.84-2.56,7.53-5.11,11.1-7.65l-29.65-35.17c-3.64,2.57-7.39,5.15-11.27,7.73Z"/>
          <path class="cls-3" d="m331.97,347.3l.87,1.01c45.87-20.86,86.5-43.27,118.27-68.29l-.87-1-36.47-66.55-118.27,68.27,36.47,66.55Z"/>
          <path class="cls-13" d="m299.82,281.96c41.89-19.47,79.97-40.9,112.71-65.06l34.01,62.05c-30.67,23.01-69.43,44.48-112.7,65.08l-34.01-62.06Z"/>
          <path class="cls-4" d="m392.18,234.96c-2.04,1.34-4.11,2.68-6.19,4.01l31.38,56.12c2.02-1.29,4.03-2.58,5.98-3.86l-31.18-56.27Z"/>
          <path class="cls-4" d="m407.25,224.67c-3.75,2.66-7.58,5.3-11.49,7.92l31.16,56.28c3.88-2.6,7.63-5.19,11.23-7.77l-30.9-56.43Z"/>
          <path class="cls-14" d="m48.7,121.66l214.43,123.8c12.04,6.95,23.44,19,30.97,32.74l1.39,2.54c42.99-20.69,82.82-43.22,118.27-68.27l-1.4-2.55c-7.53-13.75-18.92-25.79-30.96-32.74L166.97,53.37c-6.26-3.61-11.87-3.93-15.51-1.53,0-.02-117.47,67.8-117.47,67.8,3.67-1.85,8.9-1.34,14.71,2.02Z"/>
          <path class="cls-13" d="m490.22,328.85c-.81-3.1-2.57-6.36-4.93-9.14-31.84,24.4-72.62,46.86-118.27,68.28,2.35,2.79,4.12,6.04,4.93,9.15,4.37,16.65,4.6,30.68,1.77,42.78,46.42-20.52,87.21-42.85,118.27-68.29,2.83-12.08,2.77-25.32-1.77-42.78Z"/>
          <path class="cls-3" d="m487.43,354.18c.02,1.17-.53,2.28-1.46,3.02-2.63,2.04-5.36,4.1-8.21,6.17-1.14.82-2.73.06-2.83-1.33-.06-1-.16-1.98-.24-2.97-.8-8.14-2.42-15.98-3.56-19.74-.24-.74.06-1.53.71-1.96,2.84-1.94,5.65-3.92,8.38-5.89.45-.3.88-.63,1.32-.95,1.01-.74,2.43-.24,2.76.96,1.17,4.38,3.07,13.41,3.13,22.69Z"/>
          <path class="cls-3" d="m398.3,407.08c.08,1.33-.63,2.6-1.83,3.16-3.92,1.88-8,3.77-12.33,5.75-1.12.51-2.42-.22-2.54-1.46-.08-.79-.16-1.62-.26-2.47-.77-6.54-2.28-14.69-4.32-19.85-.35-.87.06-1.86.92-2.26,4.38-2.09,8.53-4.11,12.51-6.09.55-.26,1.08-.53,1.61-.79,1-.5,2.18.02,2.49,1.08,1.38,4.7,3.2,13.96,3.76,22.93Z"/>
          <path class="cls-19" d="m482.61,351.16c.02,1.17-.53,2.3-1.46,3.02-2.09,1.62-4.24,3.24-6.46,4.88-.8-8.14-2.42-15.98-3.56-19.74-.24-.74.06-1.53.71-1.96,2.84-1.94,5.65-3.92,8.38-5.89,1.09,4.85,2.34,12.19,2.39,19.69Z"/>
          <path class="cls-19" d="m393.48,404.06c.08,1.33-.63,2.6-1.83,3.18-3.31,1.57-6.71,3.16-10.31,4.82-.77-6.54-2.28-14.69-4.32-19.85-.35-.87.06-1.86.92-2.26,4.38-2.09,8.53-4.11,12.51-6.09,1.24,5.07,2.57,12.73,3.04,20.2Z"/>
          <path class="cls-15" d="m366.98,387.96l-3.5,1.44-4.97,2.03-2.29.94-1.88.76-.44,2.76-2.35,14.65c-5.29-10.03-13.65-19.41-23.06-24.85-15.65-9.03-28.44-3.85-28.85,11.44l-172.41-99.53c-.44-15.82-13.21-35.74-28.88-44.76-15.65-9.06-28.41-3.88-28.85,11.44l-42.67-24.65.55-32.23.09-4.85.06-2.24.09-4.85,1.15-65.71c.09-5.03,2.09-8.47,5.26-10.09,3.65-1.88,8.88-1.35,14.68,2l214.44,123.79c12.06,6.97,23.44,19,30.97,32.74l1.38,2.56,36.5,66.56.85,1s34.03,39.5,34.15,39.65Z"/>
          <path class="cls-19" d="m488.32,359.06c-.08,2.32-.35,4.56-.82,6.72-3.16,2.57-6.54,5.11-10.16,7.64.4-2.18.64-4.44.71-6.76,3.59-2.47,7.03-5,10.28-7.59Z"/>
          <path class="cls-19" d="m397.58,419.42c-4.05,1.97-8.26,3.94-12.65,5.91.33-2.23.47-4.51.42-6.87,4.26-1.9,8.45-3.83,12.52-5.81.05,2.32-.05,4.57-.3,6.77Z"/>
          <g>
            <path class="cls-3" d="m412.66,406.58c-1.2.61-2.63-.24-2.67-1.59-.25-8.23-1.49-16.85-3.74-26.07-.03-.11-.05-.21-.08-.32-.25-.97.21-1.98,1.09-2.43,20.23-10.38,37.91-20.42,53.62-30.45.94-.6,2.19-.06,2.4,1.03,1.95,10.15,2.39,19.36,1.32,27.92-.12.96-.66,1.82-1.46,2.36-14.7,10.01-31.33,19.75-50.48,29.54Z"/>
            <g>
              <path class="cls-13" d="m411.57,380.81c-.58,0-1.14-.32-1.43-.87-.4-.79-.09-1.76.69-2.16,17.2-8.84,33.44-18.01,48.26-27.25.76-.47,1.74-.24,2.21.51.47.75.24,1.74-.51,2.21-14.9,9.29-31.21,18.5-48.49,27.38-.24.12-.49.18-.73.18Z"/>
              <path class="cls-13" d="m413.41,387.8c-.58,0-1.14-.31-1.43-.86-.41-.79-.1-1.76.68-2.17,17.42-9.07,32.45-17.66,47.19-27.01.75-.48,1.74-.25,2.22.5.48.75.25,1.74-.49,2.22-14.82,9.4-29.93,18.03-47.42,27.15-.24.12-.49.18-.74.18Z"/>
              <path class="cls-13" d="m414.37,394.54c-.58,0-1.13-.31-1.42-.86-.41-.78-.11-1.76.67-2.17,17.63-9.3,31.46-17.32,46.11-26.77.75-.48,1.74-.27,2.22.48.48.75.27,1.74-.48,2.22-14.73,9.51-28.64,17.56-46.36,26.91-.24.13-.5.19-.75.19Z"/>
              <path class="cls-13" d="m414.68,401.76c-.57,0-1.13-.31-1.42-.85-.42-.78-.12-1.76.66-2.17,17.85-9.54,30.48-16.97,45.04-26.53.74-.49,1.74-.28,2.22.46.49.74.28,1.74-.46,2.22-14.65,9.61-27.35,17.09-45.29,26.68-.24.13-.5.19-.76.19Z"/>
            </g>
          </g>
          <path class="cls-3" d="m69.85,114.37l198.55,114.64c1.31.76,3.45.76,4.76,0,1.31-.76,1.31-1.99,0-2.75L74.62,111.62c-1.31-.76-3.45-.76-4.76,0-1.31.76-1.31,1.99,0,2.75Z"/>
          <path class="cls-3" d="m154.07,68.49l198.56,114.64c1.31.76,3.45.76,4.76,0,1.31-.76,1.31-1.99,0-2.75l-198.56-114.64c-1.31-.76-3.45-.76-4.76,0-1.31.76-1.31,1.99,0,2.75Z"/>
          <g>
            <path d="m353.91,331.12c-.45,0-.89-.25-1.11-.68-.31-.61-.07-1.36.55-1.67,10.99-5.57,21.51-11.16,31.25-16.6.6-.33,1.36-.12,1.69.48.34.6.12,1.36-.48,1.69-9.77,5.46-20.31,11.06-31.34,16.65-.18.09-.37.13-.56.13Z"/>
            <path d="m395.93,308.38c-.43,0-.85-.22-1.08-.62-.35-.59-.14-1.36.45-1.7,8.89-5.17,17.39-10.38,25.26-15.5.58-.38,1.35-.21,1.72.36.38.58.21,1.35-.36,1.72-7.9,5.14-16.43,10.37-25.36,15.56-.2.11-.41.17-.62.17Z"/>
            <path d="m370.54,321.86c-.29,0-.54-.2-.61-.49-.07-.34.14-.67.47-.74l16.3-3.64c.35-.08.67.14.74.47.07.34-.14.67-.47.74l-16.3,3.64s-.09.01-.14.01Z"/>
            <path d="m405.62,301.81c-.29,0-.54-.2-.61-.49-.07-.34.14-.67.47-.74l16.3-3.64c.35-.07.67.14.74.47.07.34-.14.67-.47.74l-16.3,3.64s-.09.01-.14.01Z"/>
          </g>
          <path class="cls-14" d="m214.06,237.11v101.34l71.09,41.05c.59.34,1.07.14,1.07-.45v-100.26l-72.16-41.66Z"/>
          <polygon class="cls-7" points="280.35 282.17 280.35 318.9 219.94 284.02 219.94 247.28 222.26 248.64 280.35 282.17"/>
          <polygon class="cls-13" points="280.35 282.17 280.35 316.43 222.26 282.93 222.26 248.64 280.35 282.17"/>
          <polygon class="cls-14" points="326.38 346.28 293.23 327.14 293.23 285.78 295.5 289.93 324.23 342.4 326.38 346.28"/>
          <polygon class="cls-13" points="324.23 342.4 295.5 325.78 295.5 289.93 324.23 342.4"/>
          <polygon class="cls-3" points="280.87 325.58 280.87 333.51 267.43 325.76 267.43 317.83 280.87 325.58"/>
          <path class="cls-13" d="m371.95,397.14c-.81-3.1-2.58-6.36-4.93-9.15-.03-.04-12.69,5.13-12.69,5.13l-2.8,17.42c3.5,6.66,5.66,13.62,5.83,19.92l16.36,9.45c2.84-12.1,2.61-26.13-1.76-42.78Z"/>
          <g>
            <path class="cls-13" d="m330.13,354.83c-.07,0-.15,0-.22-.02l-22.33-4.5c-.6-.12-.98-.7-.86-1.3.12-.6.69-1.01,1.3-.86l22.33,4.5c.6.12.98.7.86,1.3-.11.52-.57.88-1.08.88Z"/>
            <path class="cls-13" d="m325.08,343.58h-17.28c-.61,0-1.1-.49-1.1-1.1s.49-1.1,1.1-1.1h17.28c.61,0,1.1.49,1.1,1.1s-.49,1.1-1.1,1.1Z"/>
            <g>
              <path class="cls-3" d="m317.86,336.27c.86.54,1.34,1.53,1.22,2.53l-1.3,11.73c-.14,1.24-1.12,2.22-2.36,2.34l-11.82,1.2c-1.96.2-3.6-1.33-3.65-3.39l-.16-7.09c-.04-1.74,1.1-3.33,2.71-3.8l13.2-3.84c.73-.21,1.51-.1,2.15.3Z"/>
              <path class="cls-14" d="m319.26,339.46v12.75c0,1.21-.95,2.22-2.17,2.27l-12.51.6c-2.06.1-3.79-1.52-3.84-3.58l-.16-7.1c-.04-1.74,1.15-3.27,2.85-3.66l13.58-3.08c1.15-.26,2.25.61,2.25,1.79Z"/>
            </g>
          </g>
          <polygon class="cls-3" points="127.37 201.49 33.87 147.51 33.87 202.51 127.37 256.49 127.37 201.49"/>
          <g>
            <ellipse class="cls-3" cx="166.92" cy="252.96" rx="22.51" ry="39.79" transform="translate(-118.53 151.14) rotate(-36.95)"/>
            <g>
              <path class="cls-17" d="m166.92,286.73c-18.2-10.51-33.01-33.87-33.01-52.07s14.81-24.46,33.01-13.95c18.2,10.51,33.01,33.87,33.01,52.07s-14.81,24.46-33.01,13.95Zm0-57.2c-13.34-7.7-24.19-3.11-24.19,10.22s10.85,30.45,24.19,38.15c13.34,7.7,24.19,3.11,24.19-10.22s-10.85-30.45-24.19-38.15Z"/>
              <g>
                <path class="cls-12" d="m182.57,252.12c10.09,1.95,21.44,8.76,30.47,14.07-8.85-4.72-20.18-10.9-29.82-12.14l-.65-1.93Z"/>
                <path class="cls-12" d="m181.17,250.57c1.53-.24,3.06-.49,4.53-.84,6.47-1.51,8.68-3.44,11.94-5.33-3.87,2.96-5.66,5.39-15.43,8.09l-1.04-1.93Z"/>
                <path class="cls-12" d="m179.49,256.56c1.01.73,2.53,1.92,3.54,2.73l-.35-.19,1.34.47c1.11.4,2.51.9,4.03,1.5l-.34.05c2.31-1.53,2.59-1.15.98,1.19-.09.13-.14.12-1.65-.27-.45-.12-3.89-.98-4.29-1.26-.6-.41-1.2-.83-1.79-1.26-.19-.14-1.21-.87-1.78-1.31-.51-.39-.84-1.08-.74-1.53.09-.44.56-.5,1.05-.14Z"/>
                <path class="cls-12" d="m170.14,245.62c.04-.45.17-1.3.2-1.47.35-2.12.17-1.83,1.47-1.81.24,0,2.53.07,2.74.17,7.06,3.54,7.08,3.91.15,1.24l.23.05c-1.05.23-2.29.38-3.05.48l.39-.39c-.05.89-.14,2.18-.27,3.02-.07.47-.55.55-1.06.18-.49-.36-.84-1.01-.8-1.47Z"/>
                <path class="cls-12" d="m183.99,253.91c.08.18.15.36.17.53.1.84-1.18.99-2.42-.07-.9-.77-1.52-1.91-2.09-2.98-.45-.84-1.22-1.97-.42-2.09.89-.14,3.4,1.36,4.77,4.61Z"/>
                <path class="cls-18" d="m182.76,253.52c.7,2.36-1.76,4.81-3.43,3.88-.9-.5-5.4-4.82-7.89-10.03-1.97-4.13,3.88-1.28,5.69-.11,3.19,2.05,5.22,4.91,5.62,6.27Z"/>
                <path class="cls-12" d="m174.31,257.06c2.71,2.08,7.2,5.6,8.76,6.82.45.35.74.9.73,1.31-.02,1.46-.07,2.91-.12,4.35-.04.97-.06,1.99-.23,4.29l-.34-.7c.32.34,4.88,5.15,4.71,5.32-.15.14-4.82-4.25-5.14-4.55-.23-.21-.32-.45-.34-.7-.23-3.47-.33-7.56-.36-9.05l.73,1.31-4.39-3.37c-1.46-1.13-2.93-2.26-4.38-3.4-.51-.4-.84-1.08-.73-1.53.1-.44.59-.49,1.1-.1Z"/>
                <path class="cls-12" d="m163.24,243.38c-.3-1.05-.57-2.09-.86-3.13l-.83-3.13,1.39,1.26c-1.52.16-5.74.45-6.06.26-4.14-2.56-4.58-3.08-.06-1.13l-.29-.07c.43-.12.87-.24,1.31-.34.44-.11.89-.2,1.33-.29.9-.18,1.8-.36,2.71-.51.4-.06.96.34,1.25.91.19.36,1.82,6.38,1.89,6.63.16.58-.12.95-.61.82-.49-.13-1.01-.69-1.17-1.27Z"/>
                <path class="cls-12" d="m171.64,260.3c1.91,9.24,1.89,8.82,1.67,9.07l-5.68,6.27.05-.19-.21,4.03c0,.05-.05.07-.1.03-.05-.03-.09-.09-.09-.14l-.46-4.4c0-.07,0-.12.03-.16.02-.03,4.94-7.15,4.94-7.15l-.08.58-2.07-8.59c-.15-.64.17-1.02.72-.86s1.12.81,1.27,1.45c0,.02,0,.03.01.05Z"/>
                <path class="cls-12" d="m161.62,246.77l-8.07-5.54.56.18-11,.43c-.08,0-.13-.01-.19-.04l-4.56-2.4c-.05-.03-.1-.1-.1-.15,0-.05.03-.07.08-.06l4.48,1.68-.19-.04,10.52-1.43c.32-.04-.21-.32,8.65,5.41.57.37,1,1.11.96,1.65-.04.55-.53.69-1.1.32-.01,0-.03-.02-.04-.03Z"/>
                <path class="cls-18" d="m170.81,262.32c-15.39-.53-20.78-9.14-20.78-9.14l-.56-1-.71-1.28s-3.36-9,7.65-9.42c12.94-.5,21.21,7.67,23.33,13.06,1.25,3.19,1.55,8.14-8.93,7.77Z"/>
                <path class="cls-10" d="m169.14,259.95c-11.5-.4-17.42-5.31-19.67-7.76l-.71-1.28s-4.7-8.6,7.65-9.42c12.77-.85,21.19,7.61,23.33,13.06,1.09,4.3-2.53,5.68-10.6,5.4Z"/>
                <path class="cls-12" d="m177.98,251.4c-1.12-.51-2.95-1.27-4-1.67-5.39-2.05-18.56-3.85-25.23,1.18,5.33-5.06,17.37-5.9,26.28-2.86,1.48,1.4,2.46,2.66,2.95,3.35Z"/>
              </g>
              <polygon class="cls-17" points="183.4 287.13 143.01 223.41 149.25 220.78 189.64 284.49 183.4 287.13"/>
            </g>
          </g>
        </g>
      </g>
      <path class="cls-2" d="m202.71,468.11l-4.19-4.71c-.63-.71-1.4-1.32-2.26-1.82l-21.1-11.97-1.52-2.78-.38-.24c.08-.33.11-.67.1-1-.02-1.05-.41-2.09-1.09-2.95-.57-.72-1.34-1.31-2.11-1.88-.16-.12-.32-.23-.48-.34.87-.4,1.58-.99,2.01-1.85.81-1.63.12-3.51-.62-5.16-2.28-5.11-5.46-10.38-11.09-12.83-6.72-2.92-14.72-.96-22.22-1.12-5.83-.13-11.5-1.59-17.27-2.35-6.14-.81-21.8-3.16-23.25,5.08-.42,2.37.59,4.73,1.69,6.92,1.32,2.62,2.86,5.22,5.15,7.27,2.29,2.06,5.43,3.53,8.72,3.45,4.83-.12,8.77-3.42,13.45-4.46,1.54-.34,3.11-.42,4.69-.36.32,1.07,1.24,2.13,2.87,2.97,2.51,1.29,5.56,1.39,8.37,2.02,4.75,1.06,8.82,3.63,13.01,5.86,4.13,2.19,8.75,4.12,13.56,3.82l.65.39,3.64.66,22.26,11.73c.72.38,1.34.87,1.84,1.46l4.28,5.04c.27.32.8.38,1.15.13.34-.24.4-.68.13-.98Z"/>
      <g>
        <path class="cls-8" d="m49.86,169.84l-2.84,9.55-1.89-1.08-1.29-6.12-1.68,4.43-1.89-1.08-2.01-12.31,2.31,1.32,1.01,7.02,2.11-5.18.74.42,1.64,7.32,1.49-5.59,2.29,1.3Z"/>
        <path class="cls-8" d="m53.87,183.58c-2.51-1.43-4.2-4.85-4.07-8.19.13-3.34,2.02-4.72,4.53-3.29s4.19,4.83,4.06,8.18c-.13,3.35-2.01,4.72-4.51,3.29h0Zm2.28-4.57c.07-1.71-.74-3.43-1.93-4.1s-2.11.06-2.18,1.76.76,3.43,1.94,4.11,2.1-.06,2.16-1.77Z"/>
        <path class="cls-8" d="m62.31,184.69l-.78-.44-.13,3.34-2.15-1.23.44-10.92,3.38,1.93c1.68.96,2.84,3.23,2.75,5.52-.05,1.34-.56,2.17-1.36,2.38l1.39,4.86-2.4-1.37-1.13-4.06Zm-.68-2.98l.98.56c.6.34.97.03.99-.65s-.3-1.38-.9-1.72l-.98-.56-.09,2.37Z"/>
        <path class="cls-8" d="m71.16,193.16l-2.05-6.1-.19,4.82-2.15-1.23.44-10.92,2.15,1.23-.18,4.6,2.25-3.43,2.49,1.42-2.71,3.86,2.51,7.19-2.55-1.45Z"/>
        <path class="cls-8" d="m84.62,194.86c-.14,3.57-1.91,5.16-4.35,3.77s-4.06-4.77-3.93-8.1,1.96-4.76,4.37-3.39c2.05,1.17,3.65,3.91,3.87,6.63l-2.25-1.28c-.25-1.08-.92-2.07-1.72-2.52-1.17-.67-2,.07-2.07,1.81-.07,1.73.66,3.35,1.84,4.03.82.47,1.55.31,1.83-.39l-1.94-1.1.08-1.9,4.28,2.44Z"/>
        <path class="cls-8" d="m90.53,201.38l-.11,2.75-4.95-2.82.44-10.92,2.18,1.24-.33,8.17,2.78,1.58Z"/>
        <path class="cls-8" d="m95.03,207.05c-2.51-1.43-4.2-4.85-4.07-8.19.13-3.34,2.02-4.72,4.53-3.29,2.5,1.43,4.19,4.83,4.06,8.18s-2.01,4.72-4.51,3.29h0Zm2.28-4.57c.07-1.71-.74-3.43-1.93-4.1-1.19-.68-2.11.06-2.18,1.76-.07,1.7.76,3.43,1.94,4.11s2.1-.06,2.16-1.77Z"/>
        <path class="cls-8" d="m106.67,210.22c-.07,1.77-1.21,2.49-2.65,1.67l-3.6-2.05.44-10.92,3.52,2.01c1.38.79,2.35,2.55,2.28,4.16-.04.98-.46,1.63-1.08,1.8.72.91,1.14,2.15,1.09,3.34Zm-2.76-7.17l-1.09-.62-.08,1.9,1.09.62c.45.26.74.03.77-.54s-.24-1.11-.69-1.36Zm.65,5.6c.02-.58-.27-1.16-.73-1.43l-1.17-.67-.08,1.99,1.17.67c.47.27.79.03.81-.56Z"/>
        <path class="cls-8" d="m112.25,214.77l-2.77-1.58-.5,1.53-2.3-1.31,3.5-9.17,2.1,1.2,2.7,12.71-2.37-1.35-.36-2.02Zm-1.16-6.53l-.99,2.9,1.72.98-.73-3.88Z"/>
        <path class="cls-8" d="m120.79,218.63l-.11,2.75-4.95-2.82.44-10.92,2.18,1.24-.33,8.17,2.78,1.58Z"/>
        <path class="cls-8" d="m37.56,189.52l2.22,1.26c-.03.78.38,1.41.87,1.68.45.26.89.17.92-.43.03-.68-.57-1.23-1.3-1.9-1.11-1.04-2.53-2.34-2.43-4.83.09-2.15,1.26-2.74,3.1-1.69s2.89,3.02,2.8,5.24l-2.16-1.23c.03-.69-.33-1.23-.77-1.48-.38-.22-.76-.2-.78.31-.02.62.56,1.16,1.28,1.84,1.13,1.07,2.61,2.46,2.51,4.96-.1,2.38-1.45,2.87-3.27,1.84-1.91-1.09-3.09-3.2-2.99-5.59Z"/>
        <path class="cls-8" d="m49.99,197.54l-.1,2.61-5.09-2.9.44-10.92,4.99,2.85-.1,2.6-2.85-1.63-.06,1.61,2.56,1.46-.1,2.47-2.56-1.46-.07,1.63,2.95,1.68Z"/>
        <path class="cls-8" d="m54.17,199.18l-.78-.44-.13,3.34-2.15-1.23.44-10.92,3.38,1.93c1.68.96,2.84,3.23,2.75,5.52-.05,1.34-.56,2.17-1.36,2.38l1.39,4.86-2.4-1.37-1.13-4.06Zm-.68-2.98l.98.56c.6.34.97.03.99-.65s-.3-1.38-.9-1.72l-.98-.56-.09,2.37Z"/>
        <path class="cls-8" d="m66.04,198.19l-3.42,9.22-2-1.14-2.61-12.66,2.45,1.4,1.32,7.7,1.82-5.9,2.44,1.39Z"/>
        <path class="cls-8" d="m66.81,198.63l2.18,1.24-.44,10.92-2.18-1.24.44-10.92Z"/>
        <path class="cls-8" d="m69.87,205.97c.13-3.29,2-4.74,4.38-3.38,2.05,1.17,3.55,3.96,3.76,6.91l-2.18-1.24c-.22-1.27-.87-2.38-1.69-2.85-1.11-.63-1.97.15-2.03,1.84s.69,3.37,1.8,4c.87.49,1.58.09,1.84-1l2.2,1.25c-.41,2.7-2.08,3.74-4.16,2.56-2.37-1.35-4.05-4.83-3.92-8.09Z"/>
        <path class="cls-8" d="m83.98,216.92l-.1,2.61-5.09-2.9.44-10.92,4.99,2.85-.1,2.6-2.85-1.63-.06,1.61,2.56,1.46-.1,2.47-2.56-1.46-.07,1.63,2.95,1.68Z"/>
        <path class="cls-8" d="m87.33,215.93c.13-3.29,2-4.74,4.38-3.38,2.05,1.17,3.55,3.96,3.76,6.91l-2.18-1.24c-.22-1.27-.87-2.38-1.69-2.85-1.11-.63-1.97.15-2.03,1.84s.69,3.37,1.8,4c.87.49,1.58.09,1.84-1l2.2,1.25c-.41,2.7-2.08,3.74-4.16,2.56-2.37-1.35-4.05-4.83-3.92-8.09Z"/>
        <path class="cls-8" d="m95.94,223.65l2.01,1.15-.11,2.7-2.01-1.15.11-2.7Z"/>
        <path class="cls-8" d="m103.99,229.18l-2.77-1.58-.5,1.53-2.3-1.31,3.5-9.17,2.1,1.2,2.7,12.71-2.37-1.35-.36-2.02Zm-1.16-6.53l-.99,2.9,1.72.98-.73-3.88Z"/>
      </g>
    </g>
  </g>
</svg>