<?xml version="1.0" encoding="UTF-8"?>
<svg id="Layer_1" data-name="Layer 1" xmlns="http://www.w3.org/2000/svg" viewBox="0 0 450 450">
  <defs>
    <style>
      .cls-1 {
        fill: #343a40;
      }

      .cls-2 {
        fill: #dc3545;
      }
    </style>
  </defs>
  <g>
    <path class="cls-1" d="m358.33,220.82c-11.01-4.32-22.98-.3-28.35,8.89l-8.57,1.11c-.85.11-1.06,1.26-.3,1.63l6.47,3.28s-.02.09-.04.12c.1,0,.18,0,.28-.02l1.11.56.1-.56c8.98.15,17.76,4.06,24.16,10.85,3.71,3.94,6.25,8.52,7.78,13.3l-.93.54,5.79,5.35c.57.51,1.46-.01,1.3-.76l-1.56-6.78c2.89-2.22,5.28-5.11,6.68-8.69,4.39-11.19-1.84-24.09-13.94-28.82Z"/>
    <path class="cls-1" d="m311.56,247.68c-1.44,1.35-2.61,2.89-3.63,4.49l-7.89-1.1c-.85-.11-1.33.93-.71,1.5l5.88,5.33c-.28.87-.56,1.73-.74,2.6,11.52,3.37,21.07,12.89,24.65,25.44.83,2.89,1.27,5.82,1.4,8.73,1.49.12,2.95.05,4.4-.06l3.12,6.18c.34.71,1.37.52,1.48-.24l.95-7.01c3.35-1.06,6.52-2.83,9.22-5.36,10.36-9.75,10.22-26.72-.32-37.9-10.52-11.17-27.46-12.33-37.81-2.58Z"/>
    <path class="cls-1" d="m288.01,265.43c-2.73.81-5.24,1.99-7.5,3.51l-5.24-4.34c-.66-.54-1.62.11-1.37.9l2.1,7.29c-.61.61-1.22,1.22-1.76,1.89,10.73,9.95,15.2,26.3,10.06,41.89-.55,1.67-1.23,3.28-1.96,4.84.78.5,1.59.95,2.39,1.38l-.55,6.78c-.06.77.9,1.16,1.39.56l4.24-5.29c4.85,1.46,10.06,1.65,15.17.18,15.23-4.33,23.79-21.18,19.09-37.65-4.68-16.45-20.84-26.27-36.06-21.94Z"/>
    <path class="cls-1" d="m259.7,272.05c-3.6-1.18-7.22-1.61-10.83-1.44l-2.95-6.69c-.34-.77-1.5-.65-1.65.2l-1.39,7.47c-1.39.37-2.78.73-4.12,1.26,5.03,14.36.76,31.58-12.08,42.79-2.22,1.94-4.61,3.61-7.12,5.02.59,1.33,1.28,2.62,2.04,3.86l-4.8,5.06c-.52.56-.01,1.48.73,1.3l7.56-1.63c3.45,3.85,7.84,6.85,12.98,8.53,16.81,5.54,35.27-4.71,41.26-22.85,5.95-18.17-2.83-37.36-19.63-42.89Z"/>
    <path class="cls-1" d="m228.16,264.79c-5.43-6.18-12.89-9.56-20.76-10.19l-1.45-6.47c-.19-.85-1.34-.93-1.66-.13l-2.63,6.66c-2.4.23-4.8.62-7.16,1.33-.22,2.39-.7,4.76-1.43,7.11-2.8,9.08-9.05,16.78-17.53,21.69-2.17,1.26-4.49,2.22-6.8,3.02-.18,2.43,0,4.82.35,7.17l-.11-.19-5.46,5.76c-.52.55-.02,1.46.73,1.29l6.17-1.34c1.23,3.57,3.07,6.94,5.68,9.91,11.65,13.3,32.75,13.9,47.13,1.3,14.37-12.61,16.57-33.59,4.93-46.9Z"/>
    <path class="cls-1" d="m185.73,238.87c-3.03-5.24-7.56-9.09-12.81-11.44l.62-6.96c.07-.84-.99-1.29-1.54-.63l-4.69,5.73c-1.26-.28-2.55-.51-3.88-.67-3.72,10.57-13.03,19.2-25.31,21.91-2.59.59-5.23.87-7.84.87-.61,0-1.19-.06-1.8-.09-.1.32-.17.66-.26.99v-.33l-7.57,2.3c-.74.23-.74,1.29,0,1.51l6.51,2.02c-.54,5.66.55,11.41,3.52,16.56,8.12,14.07,27.03,18.36,42.22,9.6,15.2-8.79,20.93-27.3,12.83-41.37Z"/>
    <path class="cls-1" d="m137,241.67c15.54-3.41,25.57-17.87,22.4-32.26-.83-3.82-2.52-7.24-4.84-10.13l3.25-6.68c.37-.77-.48-1.55-1.21-1.13l-6.3,3.58c-1.25-.99-2.58-1.9-4.02-2.68-5.38,5.84-12.85,9.42-21.02,10.09-.92.06-1.79.1-2.67.1-4.91,0-9.57-1.12-13.72-3.1-.88,1.04-1.62,2.13-2.32,3.25l-6.86-1.01c-.76-.11-1.19.84-.65,1.35l5.06,4.63c-1.63,4.44-2.1,9.29-1.02,14.14,3.17,14.4,18.35,23.29,33.92,19.84Z"/>
    <path class="cls-1" d="m124.85,197.21c14.17-1.13,24.81-12.7,23.76-25.84-.26-3.17-1.21-6.12-2.65-8.8l4.58-6.09c.52-.68-.16-1.62-.99-1.34l-7.32,2.5c-.57-.6-1.11-1.24-1.76-1.8-5.35,5.35-12.92,8.71-21.35,8.71-6.29,0-12.09-1.88-16.87-5.05-.26.32-.43.68-.66,1.01l-5.93-2.04c-.74-.26-1.34.6-.88,1.21l4.17,5.57c-1.32,3.18-2,6.64-1.72,10.25,1.05,13.13,13.4,22.85,27.59,21.71Z"/>
    <path class="cls-1" d="m95.08,137.01c0,12.3,10.79,22.3,24.07,22.3s24.09-10,24.09-22.3c0-3.47-.93-6.72-2.46-9.64l4.05-5.4c.46-.62-.16-1.46-.87-1.22l-6.32,2.14c-1.73-1.96-3.79-3.62-6.13-4.91l2.51-8.67-4.11,5.67c-1.41-2.43-5.67-4.17-10.77-4.17-5.46,0-10.03,2.02-11.06,4.71l-4.49-6.21,2.59,8.99c-2.15,1.26-4.01,2.88-5.61,4.69l-6.61-2.24c-.73-.24-1.34.6-.89,1.22l4.29,5.71c-1.44,2.84-2.29,5.98-2.29,9.34Z"/>
  </g>
  <path class="cls-2" d="m221.44,391.46c-43.02,0-82.22-16.26-112.12-42.83l238.51-238.49c26.55,29.88,42.83,69.09,42.83,112.13,0,93.3-75.91,169.2-169.22,169.2ZM52.23,222.27c0-93.32,75.92-169.22,169.21-169.22,42.65,0,81.56,15.97,111.35,42.12l-238.43,238.43c-26.14-29.8-42.12-68.69-42.12-111.34ZM221.44,3.22C100.49,3.22,2.42,101.29,2.42,222.27s98.07,219.04,219.02,219.04,219.05-98.08,219.05-219.04S342.43,3.22,221.44,3.22Z"/>
</svg>