<?xml version="1.0" encoding="UTF-8"?>
<svg id="Layer_1" data-name="Layer 1" xmlns="http://www.w3.org/2000/svg" viewBox="0 0 450 450">
  <defs>
    <style>
      .cls-1 {
        fill: #343a40;
      }

      .cls-2 {
        fill: #dc3545;
      }
    </style>
  </defs>
  <g>
    <path class="cls-1" d="m156.48,175.83c1.81-5,4.65-9.76,8.72-13.84,4.08-4.06,8.82-6.93,13.85-8.72l-.22-.19c-6.17-6.19-16.17-6.19-22.34,0l-.23.22c-6.15,6.17-6.15,16.17,0,22.34l.22.19Z"/>
    <path class="cls-1" d="m349.13,262.49c-10.38-5.08-25.27-60.73-36.09-64.33-7.06-2.35-27.8-1.01-41.31.19,5.54,4.36,10.93,9.03,15.86,13.91,8.37-2.87,18.39-5.72,22.64-4.51,7.89,2.27,26.99,54.21,36.05,59.28,9.06,5.05,28.3-1.13,28.3-1.13,0,0-15.07,1.65-25.45-3.42Z"/>
    <path class="cls-1" d="m255.1,146.43c14.47-2.7,32.35-21.71,32.35-21.71,0,0-1.11-6.52,7.75-15.12-11.25,8.13-12.16,15.18-12.16,15.18,0,0-13.56,15.24-31.75,17.82-7.1,6.06-14.97,20.2-19.67,29.47,1.59.88,3.28,1.85,5.14,2.91,4.3-8.94,11.85-23.33,18.35-28.55Z"/>
    <path class="cls-1" d="m201.43,151.82c1.79.38,3.53.84,5.22,1.41,2.61-8.31,5.74-19.37,4.97-22.42-1.31-5.06-25.76-28.12-24.92-34.14.81-6.01,6.83-11.81,6.83-11.81,0,0-8.15,4.14-8.58,12.37-.44,8.24,20.16,26.13,20.98,34.53.51,5.15-2.28,14-4.51,20.07Z"/>
    <path class="cls-1" d="m210.74,307.26c-1.22-4.32,1.71-14.55,4.6-22.97-4.89-4.98-9.59-10.39-13.96-15.98-1.22,13.5-2.63,34.62-.25,41.76,3.63,10.81,59.27,25.71,64.34,36.08,5.06,10.37,3.4,25.44,3.4,25.44,0,0,6.19-19.23,1.13-28.28-5.05-9.06-57-28.17-59.27-36.05Z"/>
    <path class="cls-1" d="m145.59,248.31c-2.59,18.2-17.82,31.75-17.82,31.75,0,0-7.06.91-15.18,12.16,8.6-8.88,15.12-7.77,15.12-7.77,0,0,19.01-17.88,21.71-32.35,5.26-6.57,19.9-14.2,28.83-18.46-1.08-1.87-2.02-3.57-2.92-5.16-9.27,4.69-23.62,12.65-29.74,19.82Z"/>
    <path class="cls-1" d="m156.48,203.58c-.59-1.7-1.07-3.43-1.43-5.22-6.08,2.24-15.12,5.11-20.33,4.6-8.4-.84-26.28-21.44-34.52-21-8.23.45-12.37,8.59-12.37,8.59,0,0,5.79-6.02,11.81-6.85,6.02-.83,29.05,23.61,34.12,24.91,3.1.79,14.37-2.41,22.72-5.04Z"/>
    <path class="cls-1" d="m171.24,144.03c-1.68-9.27-3.68-26.46-.34-45.96-6.82,24.33-5.39,38.55-3.48,45.64,1.28,0,2.56.1,3.82.33Z"/>
    <path class="cls-1" d="m147.14,167.6c-.18-1.26-.26-2.53-.22-3.82-7.21-1.87-21.36-3.16-45.31,3.57,19.25-3.32,36.2-1.42,45.53.24Z"/>
    <path class="cls-1" d="m209,205.79c-7.1,7.1-18.69,18.63-30.91,17.86,7.97,14.68,32,55.87,58.6,71.93,21.61,13.06,42.51,6.86,53.05,1.99l4.05-.11c1.6.24,3.48-.51,4.9-1.91v-.02h.01c-.61.61-21.19-18.97-45.96-43.76-24.78-24.78-44.35-45.35-43.74-45.96Z"/>
    <path class="cls-1" d="m226.84,174.88c.78,12.24-10.75,23.79-17.85,30.92.61-.63,21.2,18.97,45.98,43.75,24.78,24.76,44.35,45.36,43.72,45.98l.04-.04c1.39-1.41,2.16-3.29,1.93-4.89l.1-4.03c4.86-10.55,11.07-31.45-1.99-53.08-16.05-26.58-57.23-50.62-71.93-58.6Z"/>
    <path class="cls-1" d="m168.56,165.37c-13.5,13.51-12.32,36.58-.67,48.23,11.67,11.67,24.23,2.35,37.74-11.17,13.5-13.51,22.84-26.1,11.17-37.75-11.66-11.66-34.72-12.81-48.24.69Z"/>
  </g>
  <path class="cls-2" d="m227.99,394.4c-42.75,0-81.73-16.16-111.41-42.56l237.01-236.99c26.39,29.69,42.55,68.65,42.55,111.41,0,92.73-75.43,168.14-168.14,168.14ZM59.84,226.26c0-92.72,75.44-168.14,168.16-168.14,42.38,0,81.03,15.87,110.65,41.86l-236.94,236.93c-25.95-29.61-41.86-68.26-41.86-110.65ZM227.99,8.6C107.79,8.6,10.34,106.05,10.34,226.26s97.45,217.67,217.66,217.67,217.67-97.46,217.67-217.67S348.21,8.6,227.99,8.6Z"/>
</svg>