<?xml version="1.0" encoding="UTF-8"?>
<svg id="Layer_1" data-name="Layer 1" xmlns="http://www.w3.org/2000/svg" viewBox="0 0 450 450">
  <defs>
    <style>
      .cls-1 {
        fill: #343a40;
      }

      .cls-2 {
        fill: #dc3545;
      }
    </style>
  </defs>
  <g>
    <path class="cls-1" d="m291.99,142.8c6.24-.41,33.1,34.64,61.73,32.07-32.5-6.4-57.99-42.64-62.1-42.12-15.07,6.71-28.56,21.31-36.04,30.59,4.23.22,8.44.74,12.65,1.56,5-8.11,13.74-19.7,23.76-22.1Z"/>
    <path class="cls-1" d="m311.99,161.35c-10.32,1.53-18.94,5.33-25.2,9.01,4.21,1.7,8.29,3.66,12.3,5.92,2.2-1.29,5.07-2.66,9.06-3.92,10.4-1.3,23.27,40.57,61.49,55.52-33.84-14.57-53.71-67.02-57.65-66.52Z"/>
    <path class="cls-1" d="m170.83,262.12c-.79-4.21-1.34-8.47-1.56-12.72-9.23,7.43-24.16,21.05-30.96,36.37-.52,4.1,35.72,29.58,42.15,62.09,2.55-28.66-32.48-55.51-32.08-61.73,2.43-10.19,14.36-19.02,22.45-24.01Z"/>
    <path class="cls-1" d="m177.91,302.25c1.36-4.18,2.8-7.18,4.16-9.41-2.25-4.03-4.18-8.16-5.89-12.38-3.71,6.31-7.67,15.06-9.26,25.63-.5,3.94,51.98,23.82,66.54,57.66-14.97-38.21-56.83-51.1-55.54-61.51Z"/>
    <path class="cls-1" d="m212.66,158.4c8.07-10.62,12.33-24.83,12.33-24.83,0,0-9.46-21.2-8.71-40.02-4.23,22.02,4.78,38.58,4.78,38.58,0,0-4.63,12.41-11.41,21.96,1.26,1.32,2.23,2.78,3.02,4.32Z"/>
    <path class="cls-1" d="m163.75,207.25c-1.56-.8-3.04-1.79-4.33-3.07-9.51,6.63-21.56,11.16-21.56,11.16,0,0-16.58-9.01-38.56-4.8,18.81-.74,40,8.7,40,8.7,0,0,13.86-4.13,24.46-11.99Z"/>
    <path class="cls-1" d="m238.45,169.16c1.46,6.5-2.33,15.51-10.47,23.65-6.19,6.19-12.9,9.84-18.61,10.61-.74,5.71-4.41,12.41-10.59,18.6-8.14,8.16-17.15,11.93-23.66,10.46-3.96,27.27,5.69,57.57,28.44,80.31,33.02,33.02,82.05,38.53,114.48,14.54,2.87-2.12,7.92-2.18,10.49-4.75,2.5-2.49,2.45-7.41,4.51-10.16,24.28-32.43,18.86-81.68-14.28-114.84-22.72-22.72-53.05-32.4-80.3-28.41Zm-60.82,87.69l85.27-85.25,3.09.64-87.72,87.74-.64-3.13Zm8.69,25.11l101.68-101.68,2.6,1.15-103.12,103.12-1.16-2.59Zm14.95,22.58l-1.66-2.1,108.91-108.94,2.03,1.75-109.28,109.29Zm135.32-.24l-26.11,26.11-6.39,2.61,35.1-35.11-2.6,6.39Zm9.26-43.04l-78.56,78.56-3.37-.4,81.54-81.54.4,3.37Zm-6.86-26.91l-98.61,98.59-2.6-1.13,100.05-100.09,1.16,2.62Zm-12.25-21.52l-107.9,107.88-2.13-1.61,108.49-108.5,1.53,2.23Z"/>
    <path class="cls-1" d="m121.57,135.75l17.55,10.56c-.22.36-.3.66.1.97l8.94,7.12c-.2.56-.15,1.15.37,1.67l5.87,5.87c-.25,1.16-.4,2.33-.42,3.52,3.14-.47,6.44,1.21,8.19,4.48.64,1.21.99,2.49,1.09,3.72l16.29-16.29c-1.24-.07-2.52-.42-3.71-1.08-1.71-.92-3.09-2.33-3.89-4.01-.64-1.39-.79-2.85-.59-4.26-1.19.02-2.35.19-3.51.44l-5.84-5.85c-.52-.53-1.11-.58-1.68-.38l-7.1-8.94c-.3-.38-.62-.31-.97-.1l-10.54-17.56c-.17-.26-.3-.44-.42-.59-.07-3.64-.64-12.04-4.51-16.3,3.46,5.58,3.89,12.6,3.84,16.11-.12.09-.2.21-.02.64,0,.98-.05,1.6-.05,1.6l.74-.27v-.11l10.25,17.02c-.42.37-.69.69-.32,1.15l7.23,9.12c-.3.63-.3,1.29.3,1.87l4.41,4.42c-.37.21-.79.37-1.16.62l-2.25-2.23c-1.39-1.4-3.64-1.4-5.03,0l-.05.04c-1.41,1.4-1.41,3.65,0,5.04l2.23,2.24c-.27.41-.42.84-.64,1.26v-.03l-4.43-4.42c-.57-.59-1.24-.59-1.88-.3l-9.08-7.23c-.5-.38-.82-.11-1.16.33l-17.01-10.25h.07l.27-.77s-.62.06-1.56.09c-.47-.22-.59-.14-.69,0-3.51.05-10.52-.36-16.11-3.81,4.26,3.87,12.75,4.44,16.36,4.49.12.11.3.24.57.38Z"/>
    <path class="cls-1" d="m162.63,200.23l.17.19c5.17,5.18,13.59,5.18,18.76,0l7.08-3.95c5.79-3.22,10.52-8.01,13.69-13.84l3.52-6.5c5.15-5.16,5.15-13.58,0-18.74l-.22-.19c-5.15-5.19-13.54-5.19-18.71,0l-24.28,24.29c-5.17,5.15-5.17,13.54,0,18.72Z"/>
    <path class="cls-1" d="m178.23,151.78c1.56.85,3.32.57,3.93-.57.64-1.16-.15-2.76-1.68-3.6-1.56-.84-3.32-.57-3.94.59-.62,1.15.15,2.76,1.68,3.58Zm.54-4.22c.62.05,1.11.26,1.11.49-.02.22-.57.36-1.16.31-.62-.06-1.11-.27-1.09-.49.02-.21.54-.36,1.14-.31Z"/>
    <path class="cls-1" d="m154.07,170.65c-1.16.63-1.41,2.39-.59,3.92.84,1.56,2.45,2.3,3.61,1.7,1.16-.61,1.41-2.38.59-3.92-.84-1.56-2.45-2.3-3.61-1.7Zm1.21,1.1c-.59-.12-1.06-.38-1.02-.61.03-.21.57-.3,1.16-.17.62.1,1.06.37,1.04.59-.05.21-.59.31-1.19.19Z"/>
    <path class="cls-1" d="m202.91,196.95c3.79,3.78,13.42.3,21.49-7.76,8.05-8.07,11.51-17.66,7.72-21.46-1.68-1.69-13.37-.31-21.44,7.76-8.07,8.06-11.53,17.67-7.77,21.46Z"/>
    <path class="cls-1" d="m181.45,204.71c-8.05,8.06-11.54,17.66-7.75,21.44,3.79,3.79,13.39.32,21.46-7.73,8.07-8.07,11.54-17.69,7.75-21.46-3.76-3.79-13.37-.31-21.46,7.76Z"/>
  </g>
  <path class="cls-2" d="m225.97,396.93c-43.66,0-83.44-16.53-113.79-43.48l242.11-242.13c26.96,30.35,43.47,70.16,43.47,113.82,0,94.72-77.03,171.78-171.78,171.78ZM54.22,225.15c0-94.72,77.08-171.77,171.76-171.77,43.32,0,82.82,16.21,113.05,42.75l-242.06,242.04c-26.51-30.24-42.75-69.73-42.75-113.02ZM225.97,2.8C103.2,2.8,3.65,102.35,3.65,225.15s99.55,222.35,222.33,222.35,222.38-99.55,222.38-222.35S348.8,2.8,225.97,2.8Z"/>
</svg>