<?xml version="1.0" encoding="UTF-8"?>
<svg id="Layer_1" data-name="Layer 1" xmlns="http://www.w3.org/2000/svg" viewBox="0 0 450 450">
  <defs>
    <style>
      .cls-1 {
        fill: #343a40;
      }

      .cls-2 {
        fill: #dc3545;
      }
    </style>
  </defs>
  <g>
    <path class="cls-1" d="m331.07,241.14c-.01,2.67-.18,5.31-.55,7.94-.19,1.27-.41,2.5-.71,3.72,19.61,6.21,94.32,34.65-77.47,63.97,194.01-24.53,101.56-66.62,78.73-75.63Z"/>
    <path class="cls-1" d="m325.95,248.43c4.59-32.61-20.69-72.51-67.08-78.67-12.14-1.51-26.29-.25-41.12,2.99,7.07,4.5,9.26,16.5,5.03,27.26-3.55,9.53-11.24,12.54-17.58,14.34,6.5-2.83,11.95-8.31,14.76-15.73,5.54-14.63-1.17-31.23-15-37.07-13.82-5.86-29.51,1.23-35.06,15.86-1.53,4.03-2.05,8.21-1.81,12.28-3.37,1.56-6.71,3.15-10.01,4.83.08-4.88-1.11-9.85-3.82-14.25-7.21-11.79-22.11-15.17-33.25-7.52-11.15,7.63-14.33,23.38-7.12,35.15,2.24,3.64,5.22,6.36,8.58,8.32-15.46,11.41-27.52,23.66-33.38,35.25,6.83.04,12.35,5.4,12.37,11.99,0,3.24-1.33,6.29-3.72,8.58-1.95,1.84-4.43,2.95-7.1,3.29,2.27,2.75,5.29,4.89,8.89,5.94,8.6,2.69,183.1,3.18,192.73-.09,17.18-2.32,31.23-15.59,33.66-32.76Zm-199.97-34.73c-1.97-1.4-3.71-3.21-5.07-5.46-5.51-8.99-3.09-21.01,5.42-26.83,8.51-5.84,19.89-3.26,25.39,5.75,1.76,2.85,2.62,6,2.83,9.18-10.19,5.35-19.86,11.21-28.57,17.36Zm37.15,24.77c-2.74.01-4.95-2.32-4.95-5.21-.01-2.89,2.2-5.22,4.92-5.24,2.72,0,4.95,2.33,4.96,5.21,0,2.89-2.21,5.24-4.94,5.24Zm40-27.08c-.7.41-1.39.86-2.13,1.19-3.31-2.75-7.63-5.37-12.55-7.46-4.93-2.09-9.75-3.34-13.95-3.76-.25-.61-.42-1.25-.62-1.88-.26-.84-.5-1.66-.66-2.53-.09-.43-.17-.88-.21-1.32-.11-.75-.17-1.49-.2-2.24-.03-.58-.04-1.14-.01-1.73.02-.61.1-1.23.17-1.87.08-.66.17-1.35.32-2.02.22-1.09.49-2.19.92-3.28,4.2-11.09,16.11-16.5,26.61-12.05,2.33.98,4.35,2.42,6.1,4.12.36.33.72.68,1.05,1.03.57.64,1.11,1.34,1.6,2.05.22.32.47.61.69.93.64,1.03,1.2,2.13,1.69,3.27.12.34.22.69.33,1.03.31.86.58,1.73.8,2.62.09.44.17.92.23,1.38.14.82.25,1.65.28,2.49.04.48.04.95.04,1.41,0,.91-.08,1.78-.19,2.68-.07.43-.08.84-.17,1.25-.25,1.3-.57,2.61-1.05,3.91-.52,1.34-1.16,2.59-1.89,3.77-.29.49-.67.88-1,1.35-.47.63-.92,1.28-1.44,1.86-.47.52-1.01.93-1.52,1.4-.44.41-.89.85-1.38,1.19-.6.44-1.23.81-1.86,1.18Z"/>
    <path class="cls-1" d="m96.85,263.48c0-4.08-3.5-7.4-7.81-7.4-4.32.02-7.81,3.33-7.81,7.41.01,4.08,3.52,7.39,7.82,7.38,4.31-.01,7.79-3.31,7.79-7.39Z"/>
  </g>
  <path class="cls-2" d="m223.79,396.74c-43.37,0-82.9-16.4-113.05-43.17l240.48-240.46c26.77,30.13,43.18,69.66,43.18,113.04,0,94.09-76.54,170.59-170.61,170.59ZM53.18,226.15c0-94.07,76.52-170.6,170.6-170.6,43,0,82.22,16.12,112.25,42.47l-240.4,240.4c-26.34-30.04-42.46-69.27-42.46-112.26ZM223.79,5.31C101.82,5.31,2.95,104.19,2.95,226.15s98.87,220.85,220.84,220.85,220.85-98.89,220.85-220.85S345.76,5.31,223.79,5.31Z"/>
</svg>