<?xml version="1.0" encoding="UTF-8"?>
<svg id="Layer_1" data-name="Layer 1" xmlns="http://www.w3.org/2000/svg" viewBox="0 0 450 450">
  <defs>
    <style>
      .cls-1 {
        fill: #343a40;
      }

      .cls-2 {
        fill: #dc3545;
      }
    </style>
  </defs>
  <path class="cls-1" d="m329.85,180.59c-53.8,0-91.83,21.22-102.05,27.59-.01-.12.01-.25,0-.4l-.42-2.9c3.88-4.24,13.97-15.15,17.45-17.43.65-1.69,1.03-6.63,1.31-11.68,10.28-7.77,25.02-16.68,45.98-25.05-20.16,3.3-35.13,11.97-45.8,20.92.24-5.35.35-9.85.52-9.48,7.45-5.1,14.32-12.19,15.19-14.3,0,0-.44-3.97,0-6.79-1.56,4.12-.88,6.55-.88,6.55,0,0-5.13,5.69-15.51,12.8-1.56,2.55-2.26,8.64-2.79,14.29-12.19,11.29-17.64,22.08-17.76,22.32-1.11-.91-2.67-1.52-4.42-1.52h-.1c-1.71,0-3.25.58-4.36,1.47-.29-.58-5.87-10.83-17.84-21.55-.52-5.85-1.21-12.35-2.84-15.01-10.38-7.12-15.5-12.8-15.5-12.8,0,0,.67-2.43-.9-6.55.43,2.82,0,6.79,0,6.79.87,2.11,7.76,9.2,15.2,14.3.16-.39.28,4.6.54,10.28-10.88-8.83-26.16-17.35-46.63-20.24,21.35,8.01,36.36,16.69,46.83,24.27.27,4.8.66,9.37,1.29,10.99,3.47,2.28,13.67,13.3,17.5,17.5l-.41,2.83c-.01.16.01.32,0,.46-10.14-6.33-48.2-27.66-102.12-27.66-3.48.01-39.52.73-39.52,26.93,0,28.74,39.52,30.98,44.29,30.98,58.05,0,59.42-15.6,99.94-23.47-.1.45-.25.88-.25,1.38,0-.23.03-.45.06-.68-4.89,2.33-22.06,10.64-24.01,13.36-.08,6.01-3.72,23.68-4.69,26.61-5.06,2.97-15.17,11.38-16.32,13.6-1.13,2.2,2.5,18.74,2.02,27,1.96-8.83-2.12-24.17-.77-26.3,1.36-2.13,9.58-9.89,16.28-13.46.97-3.17,7.41-20.99,7.52-25.64,1.96-2.92,16.27-10.54,20.37-12.1,0-.02,0-.05-.01-.07.16.4.4.71.65,1.03-1.58,2.65-2.91,6.92-3.9,12.28-4.6,1.8-13.16,5.42-15.2,7.76.41,9.81-3.89,25.57-3.89,25.57,0,0-11.17,7.65-13.63,15.55-.18,1.52,5.88,10.88,5.87,23.55,1.54-10.03-5.01-20.91-4.33-23.78.77-7.07,13.17-13.9,13.17-13.9,0,0,4.82-14.97,5.99-24.13,1.08-1.12,7.29-4.45,11.35-6.57-.76,5.29-1.17,11.35-1.17,17.78,0,18.66,3.51,34.05,8.07,36.68l1.39,25.88,1.27-25.82c4.6-2.46,8.15-17.94,8.15-36.74,0-6.42-.41-12.46-1.13-17.72,4.05,2.11,10.19,5.4,11.24,6.52,1.19,9.17,6.02,24.13,6.02,24.13,0,0,12.4,6.83,13.17,13.9.67,2.88-5.86,13.76-4.34,23.78-.01-12.67,6.05-22.03,5.89-23.55-2.47-7.9-13.63-15.55-13.63-15.55,0,0-4.31-15.76-3.91-25.57-2.03-2.33-10.52-5.91-15.11-7.74-1.01-5.36-2.35-9.65-3.91-12.31.21-.31.44-.61.59-.96,4.14,1.6,18.4,9.19,20.34,12.1.12,4.66,6.57,22.47,7.52,25.64,6.71,3.57,14.92,11.33,16.28,13.46,1.36,2.13-2.72,17.47-.76,26.3-.5-8.26,3.14-24.8,2.01-27-1.12-2.22-11.25-10.63-16.31-13.6-1.01-2.92-4.61-20.6-4.69-26.61-1.97-2.72-19.12-11.03-24.02-13.36h0c-.02-.23-.07-.45-.11-.68,40.45,7.85,41.86,23.44,99.85,23.44,4.79,0,44.32-2.24,44.32-30.98,0-26.21-36.04-26.92-39.52-26.93Zm-87.32-2.03c-.34,3.55-.63,6.48-1.13,7.52-4.26,3.3-11.75,11.41-14.62,14.55l-.19-1.28c-.13-.91-.7-1.68-1.49-2.31.14-.24,4.45-7.98,17.43-18.48Zm-42.73,7.52c-.49-.97-.77-3.64-1.08-6.91,12.66,9.87,17.17,17.25,17.5,17.81-.82.65-1.42,1.43-1.55,2.37l-.18,1.36c-2.83-3.11-10.39-11.3-14.69-14.63Zm-81.7,47.18c-4.49,0-35.22,1.14-35.22-25.75.74-20.46,29.68-21.28,32.92-21.29,57.45,0,92.74,24.25,100.91,25.37-.02-.02-.02-.08-.03-.09.27.15.48.29.5.31.15.69.79,1.81.79,1.81-.06.01-.11.01-.17.02-40.62,3.16-44.34,19.62-99.69,19.62Zm105.94,53.2h-6.9l-.48-1.42h7.84l-.47,1.42Zm2.98-15.74h-12.86l-.14-1.43h13.12l-.12,1.43Zm.78-15.76h-14.44v-1.43h14.44v1.43Zm-.58-15.74h-13.27l.13-1.43h13.02l.13,1.43Zm-2.49-15.75h-8.29l.44-1.43h7.42l.43,1.43Zm98.38,9.79c-55.22,0-59.07-16.35-99.39-19.58-.1-.02-.2-.05-.31-.06,0,0,.42-.74.65-1.37h0c.07-.15.1-.31.12-.44.02-.01.17-.09.37-.23,8.29-1.26,43.53-25.36,100.81-25.36,3.25.01,32.18.83,32.93,21.29,0,26.89-30.72,25.75-35.19,25.75Z"/>
  <path class="cls-2" d="m222.04,381.75c-39.99,0-76.42-15.12-104.2-39.81l221.67-221.66c24.68,27.77,39.8,64.21,39.8,104.2,0,86.73-70.55,157.27-157.27,157.27ZM64.76,224.49c0-86.72,70.56-157.27,157.28-157.27,39.63,0,75.81,14.84,103.48,39.15l-221.6,221.61c-24.29-27.69-39.16-63.84-39.16-103.49ZM222.04,20.91C109.61,20.91,18.46,112.06,18.46,224.49s91.15,203.59,203.58,203.59,203.58-91.16,203.58-203.59S334.48,20.91,222.04,20.91Z"/>
</svg>